<?xml version="1.0" standalone="no"?>
<!DOCTYPE svg PUBLIC "-//W3C//DTD SVG 1.1//EN" "http://www.w3.org/Graphics/SVG/1.1/DTD/svg11.dtd">
<svg xmlns="http://www.w3.org/2000/svg" width="2400" height="2400" viewBox="0 0 2400 2400"><path fill="#deba61" d="M1186.339 678.65q5.183-.02 10.367-.082c18.41-.214 36.451.093 54.696 2.768 1.09.16 1.09.16 2.201.321 8.003 1.2 15.702 2.818 23.397 5.343l6.625 1.688c8.341 2.371 15.785 6.17 23.375 10.312l2.707 1.465c10.08 5.767 19.864 12.97 28.418 20.824a106 106 0 0 0 4.187 3.61c14.193 11.93 23.216 28.12 29.5 45.351 6.346 20.278 6.522 41.052 2.188 61.75-4.196 16.591-12.897 31.109-24 44-2.54 2.526-5.203 4.77-8 7l-1.53 1.35c-4.118 3.636-8.354 6.715-13.033 9.588l-2.105 1.297c-26.206 15.933-26.206 15.933-39.832 16.328-3.5-1.563-3.5-1.563-5.39-4.04-1.875-3.11-3.526-6.256-5.11-9.523l-1.078-2.187-1.86-3.786c-3.967-7.57-9.019-14.448-14.125-21.277l-1.498-2.004a167 167 0 0 0-9.335-11.292L1246 856v-2c-.575-.26-1.15-.52-1.742-.79-2.428-1.301-4.283-2.801-6.383-4.585-17.436-14.108-36.528-24.83-57.875-31.625l-3.57-1.184c-5.89-1.9-11.678-3.384-17.797-4.324-2.633-.492-2.633-.492-5.957-1.508-3.936-1.054-7.55-1.393-11.614-1.609l-2.072-.117A712 712 0 0 0 1134 808c-1.778 2.68-2.03 4.433-2.253 7.698a357 357 0 0 0-.005 4.577l-.011 2.55c-.01 2.826-.006 5.65-.002 8.476l-.016 6.07q-.017 6.54-.018 13.08c-.002 6.89-.02 13.78-.04 20.671-.05 17.114-.08 34.229-.102 51.343-.017 13.3-.04 26.6-.083 39.9q-.032 10.28-.028 20.56c-.001 4.259-.015 8.518-.033 12.777q-.008 2.968 0 5.936c.005 2.696-.007 5.391-.024 8.087l.02 2.386c-.037 3.198-.197 5.508-1.742 8.344C1128 1022 1128 1022 1125 1023c-8.871 1.01-17.713 1.11-26.625.75l-2.547-.08c-3.8-.193-6.693-.62-10.289-1.967-2.539-1.703-2.539-1.703-3.684-3.422-1.104-2.945-1.09-5.336-1.072-8.485l.003-1.96c.007-2.252.029-4.503.05-6.754l.023-5.054c.025-5.119.066-10.237.11-15.356q.05-5.951.095-11.902.11-14.13.225-28.258l.02-2.48.165-20.208q.116-14.349.25-28.698.11-11.573.195-23.147.044-6.075.107-12.15.059-5.672.094-11.345c.015-2.03.04-4.06.065-6.09.115-10.36.115-10.36-2.185-20.394-1.28-1.81-1.28-1.81-3-3-6.698-.126-12.215 2.623-18.223 5.336a117 117 0 0 1-7.523 3.078c-12.858 4.756-23.477 11.359-33.363 20.934L1016 844h-2l-.8 1.773c-1.244 2.31-2.606 3.936-4.388 5.852-14.457 16.283-24.077 38.472-28.94 59.637-2.17 11.142-3.557 22.468-4.872 33.738l-.33 2.783c-.953 9.426-.82 18.896-.8 28.36.005 2.955 0 5.91-.007 8.865-.018 39.929 3.505 78.14 23.137 113.617 3.654 6.19 8.032 11.22 13 16.375a630 630 0 0 1 5.395 6.309c1.602 1.791 1.602 1.791 3.804 3.289L1021 1126v2l1.773.828c2.171 1.143 3.932 2.402 5.852 3.922 11.588 8.809 24.52 14.959 38.375 19.25q2.346.808 4.687 1.625c3.675 1.227 7.358 2.122 11.149 2.91 1.966.422 3.91.939 5.851 1.465 11.355 2.83 22.855 3.37 34.5 3.313l2.178-.004c13.958-.044 27.196-1.007 40.466-5.593 3.074-1.015 6.206-1.725 9.356-2.466 16.416-4.217 32.349-14.419 44.72-25.957 2.699-2.956 5.108-6.061 7.468-9.293l1.265-1.726c2.896-4.146 5.231-8.31 6.36-13.274.402-5.555.325-11.09.258-16.656q-.013-2.48-.022-4.958-.022-5.24-.067-10.477c-.07-8.1-.09-16.198-.114-24.297q-.013-3.981-.028-7.963c-.046-13.116.03-26.224.348-39.336l.047-2.426q.068-3.263.164-6.524l.095-3.49c.319-2.873.319-2.873.97-5.146 1.349-1.727 1.349-1.727 4.045-2.96 3.5-.812 6.58-1.026 10.171-1.033l3.934-.007 2.03.012c2.032.01 4.063 0 6.095-.012 6.663.013 12.748.07 19.074 2.273 1.937 1.938 1.937 1.938 3 5 1.164 8.197 1.164 16.468 1.193 24.73l.025 4.025c.026 4.359.041 8.718.055 13.077l.017 4.527q.033 9.411.051 18.821.023 13.44.107 26.879.056 9.483.063 18.966c.004 3.769.016 7.537.048 11.305.036 4.196.032 8.391.024 12.587l.05 3.764c-.06 8.164-.06 8.164-1.683 11.43-1.304 1.66-1.304 1.66-3.95 3.889-2.916.741-2.916.741-6.121.734-1.176.016-2.352.03-3.563.047l-3.754-.031q-3.82.053-7.64.121l-3.666.05c-5.872.142-11.497.906-17.256 2.079l-3.727.738c-16.796 3.545-33.338 8.861-48.96 15.95-7.123 3.204-14.131 5.575-21.75 7.312l-2.58.593c-11.95 2.503-24.152 2.574-36.314 2.537-2.102-.005-4.203 0-6.304.007-13.547.01-26.677-.505-39.865-3.887l-3.282-.819c-8.228-2.09-16.255-4.478-24.218-7.431l-2.388-.867c-17.81-6.48-34.641-13.88-50.612-24.133l-3.367-2.148c-8.325-5.53-15.476-11.912-22.633-18.852l-2.371-2.25c-1.59-1.536-3.12-3.135-4.629-4.75v-2h-2c-19.43-22.674-30.801-50.04-36.61-79.049-6.603-35.558-4.484-70.746 7.61-104.951 6.68-17.889 16.743-32.51 29-47l2.129-2.8L968 866h2l.754-1.738c7.545-13.695 26.202-24.737 39.246-32.637 5.862-3.492 11.844-6.748 17.875-9.937l2.34-1.238c11.048-5.764 22.13-10.73 34.472-12.825 5.548-1.045 9.465-2.34 13.895-5.832 1.948-2.463 2.577-4.768 3.418-7.793.263-3.32.263-3.32.167-6.853l-.019-1.994a878 878 0 0 0-.101-6.489l-.062-4.567q-.066-4.79-.152-9.578c-.07-4.045-.125-8.09-.174-12.135q-.061-4.724-.14-9.447-.033-2.232-.061-4.465c-.177-13.815-.604-27.722-6.083-40.597-3.856-9.303-3.856-9.303-3.375-14.875 3.449-2.088 6.261-2.301 10.258-2.414l3.795-.117 4.072-.094 4.198-.117c9.749-.26 19.495-.345 29.246-.221a224 224 0 0 0 15.457-.376c15.757-.93 31.533-.957 47.313-1.011m-53.863 11.301c-2.044 4.222-2.029 7.774-1.978 12.41l-.016 2.835c-.013 3.089.004 6.176.022 9.265q0 3.226-.005 6.452 0 6.761.034 13.523c.029 5.769.026 11.537.013 17.306-.007 4.443.001 8.885.014 13.327q.006 3.19 0 6.38c-.002 2.977.014 5.954.036 8.931l-.014 2.649c.066 5.393.872 9.188 3.418 13.971 1.766 1.54 1.766 1.54 4 2 2.6.312 2.6.312 5.5.375 11.893.766 24.407 2.759 35.309 7.707 2.413 1.011 4.768 1.579 7.316 2.168 7.167 1.858 13.522 5.332 20.031 8.777 1.575.831 3.161 1.639 4.75 2.442 19.35 10.024 39.381 24.986 52.969 42.031 2.898 3.38 5.936 6.81 10.125 8.5 5.909.457 10.344-.391 15.812-2.562l2.105-.817c6.197-2.5 11.685-5.673 17.083-9.621l2.578-1.871c9.856-7.513 17.243-16.427 23.422-27.129l1.402-2.355c7.471-13.557 9.08-29.627 8.88-44.836-.533-15.85-4.319-31.859-12.532-45.496-9.66-14.294-23.31-25.77-38.79-33.4-12.16-5.666-24.846-8.75-37.96-11.288l-1.988-.387c-15.572-2.985-30.804-3.434-46.606-3.511l-3.094-.017q-8.079-.039-16.159-.06-6.675-.022-13.35-.082c-5.395-.05-10.79-.074-16.186-.081a733 733 0 0 1-6.152-.046 629 629 0 0 0-8.572-.024l-2.563-.05c-3.869.041-5.73.169-8.854 2.584"/><path fill="#fcfcfc" d="m1666.46 1264.504 2.149-.005q2.241.003 4.483.034c2.27.03 4.537.021 6.806.008 7.124.03 12.699.203 19.102 3.459 13.222 11.608 23.208 29.02 33.168 43.418 1.54 2.17 3.107 4.31 4.695 6.445l1.535 2.068a810 810 0 0 0 3.048 4.07A177 177 0 0 1 1745 1329v2h2c1.667 2.135 3.22 4.27 4.75 6.5l2.707 3.863 1.323 1.897a278 278 0 0 0 4.658 6.428l1.308 1.761L1763 1353l1.348 1.77L1766 1356c2.544-.01 2.544-.01 5-1 5.857-4.582 9.948-12.093 14.167-18.153 5.228-7.487 10.779-14.707 16.36-21.932 9.061-11.774 17.749-23.816 26.261-35.99 8.039-11.452 8.039-11.452 13.212-13.925a77 77 0 0 1 8.441-.398l2.439-.01q2.542-.002 5.086.017c2.592.016 5.182 0 7.774-.02q2.476.004 4.951.013l2.343-.019c3.183.042 5.574.214 8.423 1.692 1.543 1.725 1.543 1.725 2.131 3.323.602 3.512.553 7.004.546 10.556l.007 2.512q.007 4.171.004 8.344l.01 5.977q.014 8.122.012 16.246.003 6.777.008 13.554.012 15.986.01 31.971.001 16.5.026 33.002.019 14.16.018 28.319-.002 8.46.013 16.92.014 7.954.003 15.91-.003 2.92.007 5.842c.008 2.656.003 5.312-.005 7.968l.016 2.341c-.026 4.065-.307 7.334-2.263 10.94-4.393 2.196-10.346 1.186-15.23 1.185-2.195.002-4.39.02-6.584.04q-2.091.005-4.182.005l-3.85.013C1848 1481 1848 1481 1845 1479c-1.062-3.186-1.138-5.478-1.158-8.828l-.03-3.684-.017-4.047-.03-4.258q-.04-5.783-.068-11.565-.035-6.042-.076-12.084-.074-11.443-.138-22.885-.076-13.026-.16-26.053-.17-26.797-.323-53.596c-2.207-.605-3.827-1.015-6.125-.812L1835 1332a705 705 0 0 0-2 4 141 141 0 0 1-3.687 4.688c-.71.873-1.418 1.747-2.149 2.648L1825 1346a822 822 0 0 0-3.812 4.813l-1.645 2.082c-1.597 2.11-1.597 2.11-2.984 4.52-1.73 2.867-3.66 5.48-5.684 8.148l-2.426 3.207-1.24 1.635c-1.85 2.441-3.685 4.893-5.522 7.345l-2.246 2.988a1110 1110 0 0 0-5.289 7.117c-4.879 6.593-9.818 13.11-15.09 19.395l-1.321 1.59c-2.661 3.123-5.304 5.9-8.741 8.16-2.574.457-2.574.457-5 0-6.715-4.678-11.404-12.375-16-19l-1.812-2.574a1430 1430 0 0 1-6.864-9.852c-5.805-8.368-11.927-16.487-18.163-24.538-3.333-4.305-6.622-8.622-9.724-13.099L1708 1343l-2.254-3.25q-1.185-1.658-2.371-3.312l-2.164-3.067L1699 1331c-2.648-.913-2.648-.913-5-1-1.412 2.337-1.997 3.97-2.235 6.714l.021 3.169.01 3.645.04 3.99q.012 2.104.019 4.208.02 4.53.056 9.058c.036 4.773.056 9.546.072 14.32q.074 20.358.209 40.718.074 11.246.103 22.493.02 7.118.089 14.237c.023 2.95.03 5.902.032 8.853.006 2.023.033 4.045.06 6.067l-.008 3.645.019 3.169c-.487 2.714-.487 2.714-2.329 5.02C1688 1481 1688 1481 1685 1482c-3.016.227-6.038.19-9.062.188l-2.59-.003c-5.852-.057-11.793-.135-17.348-2.185l-2-2c-2.157-9.096-1.14-19.34-1.13-28.65q-.001-2.821-.005-5.644-.005-7.63 0-15.26c.003-5.332 0-10.665 0-15.997q-.004-13.425.005-26.85.007-15.51-.002-31.022-.007-13.335-.003-26.67.003-7.957-.001-15.915-.004-7.478.005-14.954 0-2.741-.002-5.482-.002-3.747.006-7.492l-.007-2.182c.017-4.378.283-8.583 1.134-12.882 3.731-4.283 6.946-4.504 12.46-4.496M1378.635 1263.87l2.605-.005q4.26-.004 8.522.002l5.97-.003q6.267-.002 12.536.006 7.959.006 15.918-.004 6.176-.005 12.352 0 2.93 0 5.859-.002c9.539-.01 19.055.068 28.582.574l2.204.114c5.729.343 11.036 1.302 16.504 3.01l2.66.81c14.475 4.61 25.648 11.74 36.1 22.828 3.603 4.177 6.115 8.869 8.553 13.8l2 3c5.12 17.062 5.929 32.656 2 50l-.555 2.766c-1.951 8.072-6.436 15.669-11.445 22.234-8.605 8.944-20.326 16.172-32.074 20.113L1495 1404l-2 3c-.089 2.396-.089 2.396 1 5 1.652 2.395 3.554 4.529 5.5 6.687l1.646 1.87A825 825 0 0 0 1506 1426l2.445 2.75a702 702 0 0 0 9.332 10.238l1.406 1.521q1.968 2.125 3.946 4.241L1525 1447v2l1.723.668c2.984 1.746 4.59 3.924 6.714 6.644A108 108 0 0 0 1543 1467a216 216 0 0 1 3.75 4.062l1.797 1.973c1.453 1.965 1.453 1.965 2.281 4.086L1551 1479l-2 2a99 99 0 0 1-8.008.3l-2.422.014q-2.545.008-5.09.002c-2.574-.003-5.148.02-7.722.045q-2.477.004-4.953.002l-2.309.028c-5.31-.045-9.729-.998-14.496-3.391-1.99-1.499-1.99-1.499-3.379-3.074l-1.59-1.76-1.594-1.854-1.712-1.92A588 588 0 0 1 1491 1464l-1.969-2.207A403 403 0 0 1 1484 1456l-2.84-3.313a3427 3427 0 0 1-4.732-5.528 474 474 0 0 0-10.319-11.706L1465 1434v-2h-2c-1.34-1.328-1.34-1.328-2.938-3.25a440 440 0 0 0-9.812-11.125l-1.43-1.587c-2.172-2.382-4.12-4.238-6.82-6.038-12.348-2.368-25.54-1.003-38 0-1.61 4.26-2.25 7.78-2.255 12.325l-.021 3.73.003 3.988a2021 2021 0 0 1-.03 4.123 2567 2567 0 0 0-.078 17.448c-.005 3.567-.03 7.133-.065 10.7q-.015 2.034-.007 4.07c.007 1.893-.012 3.786-.033 5.68l-.008 3.262L1401 1478c-1.855 1.847-1.855 1.847-4 3-2.837.388-2.837.388-6.086.398l-3.57.012-3.719-.035-3.695.035-3.578-.012-3.256-.01c-3.584-.45-6.01-1.536-9.096-3.388-2.828-5.655-2.148-13.36-2.14-19.572l-.01-2.465q-.01-4.05-.011-8.097l-.015-5.837q-.019-7.896-.024-15.792l-.012-9.867q-.02-15.44-.027-30.88-.007-17.82-.05-35.641-.033-13.785-.034-27.57 0-8.232-.025-16.462-.023-7.731-.01-15.462.002-2.84-.013-5.679c-.013-2.58-.007-5.159.004-7.739l-.025-2.28c.03-3.163.206-5.329 1.78-8.107 1.612-1.55 1.612-1.55 3.76-2.292 3.833-.347 7.643-.397 11.487-.387m24.512 37.775L1401 1304c-.734 2.896-.734 2.896-.6 6.158l-.018 3.772.06 4.066q.006 2.093.006 4.184.011 4.382.065 8.764c.045 3.737.06 7.473.064 11.21.004 2.88.02 5.76.039 8.64q.012 2.066.02 4.132c.009 1.93.033 3.858.058 5.787.01 1.096.02 2.192.032 3.32.284 3.077.844 5.234 2.274 7.967 2.812 2.22 2.812 2.22 5.95 2.267l3.658.024 2.021.02c2.209.019 4.417.023 6.625.025l4.623.02q4.854.017 9.707.015c4.124 0 8.246.027 12.37.061 3.187.023 6.374.026 9.561.025q2.278.004 4.556.027c8.698.08 16.1-.35 23.929-4.484l2.918-1.5c6-3.966 9.459-8.299 12.809-14.66 1.549-3.455 2.206-6.04 2.273-9.84l.11-2.96c.157-6.761.246-13.619-2.11-20.04-1.417-2.263-2.927-4.28-4.66-6.309C1496 1313 1496 1313 1495 1310a140 140 0 0 0-4-1l-1.273-1.367c-2.272-2.149-4.593-3.065-7.477-4.258l-3.047-1.29c-5.478-1.856-10.948-2.21-16.702-2.262l-3.771-.039q-2.01-.013-4.02-.022l-2.067-.013q-5.407-.03-10.813-.044a1453 1453 0 0 1-11.14-.085c-2.867-.026-5.734-.035-8.6-.038q-2.055-.008-4.108-.035a380 380 0 0 0-5.742-.017l-3.294-.018c-3.056.33-3.056.33-5.799 2.133"/><path fill="#c69d4f" d="m1080 800 1 2c-.156 1.91-.156 1.91-.5 4.063L1080 810l1 1c.04 1.666.043 3.334 0 5l-1.5-1.562c-2.507-1.71-2.507-1.71-5.875-1.5-5.264.895-10.014 3.215-14.848 5.398a117 117 0 0 1-7.523 3.078c-12.858 4.756-23.477 11.359-33.363 20.934L1016 844h-2l-.8 1.773c-1.244 2.31-2.606 3.936-4.388 5.852-14.457 16.283-24.077 38.472-28.94 59.637-2.17 11.142-3.557 22.468-4.872 33.738l-.33 2.783c-.953 9.426-.82 18.896-.8 28.36.005 2.955 0 5.91-.007 8.865-.018 39.929 3.505 78.14 23.137 113.617 3.654 6.19 8.032 11.22 13 16.375a630 630 0 0 1 5.395 6.309c1.602 1.791 1.602 1.791 3.804 3.289L1021 1126v2l1.773.828c2.171 1.143 3.932 2.402 5.852 3.922 11.588 8.809 24.52 14.959 38.375 19.25q2.345.808 4.688 1.625c3.674 1.227 7.357 2.122 11.148 2.91 1.966.422 3.91.939 5.851 1.465 11.355 2.83 22.855 3.37 34.5 3.313l2.178-.004c13.958-.044 27.196-1.007 40.466-5.593 3.074-1.015 6.206-1.725 9.357-2.466 16.415-4.217 32.348-14.419 44.718-25.957 2.7-2.956 5.11-6.061 7.469-9.293l1.265-1.726c2.896-4.146 5.231-8.31 6.36-13.274.402-5.555.325-11.09.258-16.656q-.013-2.48-.022-4.958-.022-5.24-.067-10.477c-.07-8.1-.09-16.198-.114-24.297q-.013-3.982-.028-7.963c-.046-13.116.03-26.224.348-39.336l.047-2.426q.068-3.263.164-6.524l.095-3.49c.319-2.873.319-2.873.97-5.146 1.349-1.727 1.349-1.727 4.045-2.96 3.5-.812 6.58-1.026 10.171-1.033l3.934-.007 2.03.012c2.032.01 4.063 0 6.095-.012 6.663.013 12.748.07 19.074 2.273 1.938 1.938 1.938 1.938 3 5 1.164 8.197 1.164 16.468 1.193 24.73l.025 4.025c.026 4.359.041 8.718.055 13.077l.017 4.527q.033 9.411.051 18.821.023 13.44.107 26.879.056 9.483.063 18.966c.004 3.769.016 7.537.048 11.305.036 4.196.032 8.391.024 12.587l.05 3.764c-.06 8.164-.06 8.164-1.683 11.43-1.304 1.66-1.304 1.66-3.95 3.889-2.916.741-2.916.741-6.121.734-1.176.016-2.352.03-3.563.047l-3.754-.031q-3.82.053-7.64.121l-3.666.05c-5.872.142-11.497.906-17.256 2.079l-3.727.738c-16.796 3.545-33.338 8.861-48.96 15.95-7.123 3.204-14.131 5.575-21.75 7.312l-2.58.593c-11.95 2.503-24.152 2.574-36.314 2.537-2.102-.005-4.203 0-6.304.007-13.547.01-26.677-.505-39.865-3.887l-3.282-.819c-8.228-2.09-16.255-4.478-24.218-7.431l-2.388-.867c-17.81-6.48-34.641-13.88-50.612-24.133l-3.367-2.148c-8.325-5.53-15.476-11.912-22.633-18.852l-2.371-2.25c-1.59-1.536-3.12-3.135-4.629-4.75v-2h-2c-19.43-22.674-30.801-50.04-36.61-79.049-6.603-35.558-4.484-70.746 7.61-104.951 6.68-17.889 16.743-32.51 29-47l2.129-2.8L968 866h2l.754-1.738c7.545-13.695 26.202-24.737 39.246-32.637 5.862-3.492 11.844-6.748 17.875-9.937l2.34-1.238c11.048-5.764 22.13-10.73 34.473-12.825 4.842-.884 8.308-1.828 12.25-4.812A68 68 0 0 0 1080 800"/><path fill="#fcfcfc" d="m936.989 1264.599 2.376-.039 2.58.004 2.743-.03c3.003-.029 6.005-.035 9.007-.038l6.32-.03q6.651-.026 13.301-.022 6.75 0 13.5-.061c58.113-.526 58.113-.526 82.508 12.957 13.024 7.622 25.47 16.733 33.676 29.66l1.914 2.848c9.995 15.404 15.7 32.84 17.086 51.152 1.1 22.534-.876 45.551-11.024 66.071-2.323 4.23-5.026 8.115-7.976 11.929l-1.298 1.686c-9.759 12.464-20.556 22.16-34.702 29.314l-2.82 1.43c-6.243 2.863-12.726 4.652-19.368 6.32l-2.46.64c-5.309 1.253-10.564 1.858-16.003 2.16l-2.237.128c-8.841.463-17.682.506-26.534.525l-2.675.009q-6.972.022-13.945.028c-4.785.006-9.57.03-14.354.058-3.704.019-7.408.024-11.113.026q-2.647.004-5.296.024c-2.457.017-4.913.015-7.37.008l-2.188.028c-3.046-.025-5.61-.375-8.501-1.344-2.136-2.04-2.136-2.04-2.774-3.902-1.158-5.348-1.642-10.367-1.591-15.83l-.002-2.505c.001-2.743.017-5.485.032-8.228l.01-5.93q.015-8.024.056-16.046.03-6.7.051-13.4.055-15.795.139-31.59c.055-10.87.089-21.74.112-32.612q.031-14.002.104-28.005.045-8.362.058-16.726.011-7.852.074-15.705.017-2.886.014-5.772a670 670 0 0 1 .049-7.858l-.02-2.325c.039-2.123.039-2.123.552-5.606 2.434-2.689 4.42-3.375 7.989-3.401m34.035 36.797c-2.089 1.592-2.089 1.592-4.024 3.604-.307 2.41-.307 2.41-.26 5.256l-.022 3.378.007 3.723-.015 3.907c-.014 3.544-.014 7.087-.012 10.63q0 4.437-.008 8.872-.016 10.467-.006 20.934c.006 7.198-.006 14.396-.027 21.594q-.026 9.268-.02 18.536c.001 3.69-.001 7.38-.015 11.071-.015 4.118-.006 8.236.006 12.354l-.023 3.705.02 3.403v2.95c.448 3.21 1.465 5.087 3.375 7.687 5.09 2.574 10.433 2.29 16.008 2.266l2.915.005q3.048.002 6.097-.01c3.074-.01 6.148 0 9.222.012 17.12.015 32.121-1.922 47.758-9.273 3.804-2.297 6.881-4.847 10-8l2.348-2.309c9.487-9.9 14.362-20.391 17.707-33.492 3.65-15.505 2.439-30.091-2.055-45.199a80 80 0 0 0-4-10l-1.305-2.73c-5.158-10.107-12.232-17.984-21.695-24.27-3.44-1.808-3.44-1.808-7-3l-2.012-.734c-12.182-4.287-24.12-6.407-37-6.47l-2.822-.016q-2.932-.015-5.866-.02c-2.99-.01-5.977-.041-8.966-.072q-2.86-.01-5.72-.016l-2.697-.038c-3.83.014-6.383.115-9.893 1.762M1937.83 1263.87l2.678-.005q4.404-.004 8.808.002l6.22-.004q8.303-.003 16.604.008l10.238.01c52.235.048 52.235.048 74.337.383q3.205.048 6.41.082c2.863.032 5.726.084 8.59.142l2.432.02c3.152.086 5.506.311 8.324 1.782L2084 1268c.607 3.135.896 5.835 1 9l.121 3.164c.258 12.958.258 12.958-2.121 18.836-1.268 1.58-1.268 1.58-3 3-2.034.433-2.034.433-4.445.514l-2.839.109-3.173.068-3.41.102c-20.562.52-41.15.229-61.717.111q-7.164-.04-14.329-.055-2.7-.009-5.4-.03c-2.5-.02-5.001-.026-7.502-.03l-2.209-.027c-4.922.01-8.008.818-12.976 2.238v48c2.743.914 4.384 1.132 7.21 1.151l2.6.026 2.843.012 3.002.026q3.231.025 6.462.045 5.121.033 10.241.077 10.883.088 21.767.163 12.582.089 25.163.192 5.033.038 10.065.068l6.218.05 2.806.013c11.933.114 11.933.114 16.623 1.177l2 2c.581 3.488.608 7.033.75 10.562l.168 2.924c.278 6.23-.301 11.489-1.918 17.514-6.57 1.673-12.542 2.294-19.306 2.287l-2.994.02q-3.195.02-6.389.029-5.056.014-10.113.052c-8.365.056-16.73.092-25.096.128q-10.627.045-21.255.12c-3.32.02-6.64.028-9.96.036l-6.099.04-2.793-.002-2.582.025-2.23.009c-2.734.225-2.734.225-7.183 2.256v46h2l1 2c2.847.949 4.591 1.125 7.541 1.125l2.82.007 3.09-.006 3.257.006q3.507.006 7.013.006c4.965.004 9.93.025 14.895.045 9.25.038 18.498.07 27.747.067q9.644.002 19.287.062 3.678.015 7.356.005c3.429-.01 6.856.011 10.285.04l3.076-.031c2.638.039 5.05.136 7.633.674 3.129 2.355 3.129 2.355 5 5 .647 2.967.647 2.967.664 6.219l.02 3.574c-.02 1.223-.04 2.447-.059 3.707l.059 3.707-.02 3.574-.017 3.252c-.647 2.967-.647 2.967-2.79 5.614-2.857 2.353-2.857 2.353-5.835 2.974l-3.367-.006-3.879.03-4.233-.046q-2.238.003-4.476.012c-4.045.01-8.09-.01-12.135-.038-4.235-.024-8.469-.021-12.703-.021a4802 4802 0 0 1-21.328-.065c-8.22-.042-16.44-.06-24.66-.063a10917 10917 0 0 1-26.255-.047q-3.783-.009-7.566-.013a2547 2547 0 0 1-11.886-.046 910 910 0 0 0-4.363-.012 830 830 0 0 1-5.953-.032l-3.366-.014c-2.837-.259-4.492-.698-6.852-2.26-1.596-3.192-1.14-6.65-1.134-10.155l-.007-2.585q-.007-4.312-.004-8.625l-.01-6.164q-.014-8.388-.012-16.778-.003-6.994-.008-13.987-.013-16.494-.01-32.987-.001-17.037-.026-34.075-.019-14.608-.018-29.215.002-8.733-.013-17.467-.014-8.211-.003-16.421.003-3.02-.007-6.039c-.008-2.74-.003-5.48.005-8.22l-.016-2.434c.012-1.951.13-3.901.263-5.848l2-3c4.438-1.454 9.207-1.14 13.83-1.13M653.797 1270.484 657 1272l3.078 1.328c10.239 4.664 20.103 11.647 26.922 20.672l2.313 2.25c11.015 11.272 17.876 25.849 22.687 40.75l.692 2.107c5.909 18.665 6.849 39.011 2.788 58.174-4.617 20.52-12.097 39.316-25.48 55.719-8.287 8.865-19.145 16.563-30 22-2.793.664-2.793.664-5 1v2c-22.725 8.369-47.105 10.727-71.156 7.238-4.688-.827-9.269-1.932-13.844-3.238l-3.45-.945c-14.728-4.489-27.372-12.595-38.55-23.055l-2.473-2.277c-5.966-5.697-10.401-11.599-14.527-18.723l-1.54-2.543c-10.26-17.257-14.425-37.479-14.937-57.414-.074-10.783.693-20.779 3.878-31.097.617-2.005 1.177-4.02 1.732-6.044 2.616-9.244 6.31-17.45 10.867-25.902l1.172-2.414c6.214-12.383 17.44-23.527 28.543-31.547A149 149 0 0 1 549 1275l2.762-1.586c30.685-16.494 70.453-16.95 102.035-2.93M564 1307v2l-2.285.273c-2.753.52-2.753.52-4.524 2.329l-1.629 2.023c-.595.73-1.19 1.46-1.804 2.21L552 1318l-1.57 1.664c-7.642 8.122-12.39 19.783-14.956 30.544-3.608 16.819-3.813 35.186 1.151 51.749 3.844 11.807 9.71 22.084 18.375 31.043h2l1 3c9.94 7.366 21.693 13.2 34 15 5.041.353 10.073.438 15.125.438l2.09.005c10.47-.012 19.31-.78 28.785-5.443l2.34-.977c5.411-2.388 10.359-5.98 14.66-10.023v-2l1.816-.77c2.443-1.376 3.509-2.644 5.121-4.918l1.403-1.949L665 1423l1.176-1.499c3.566-4.664 5.625-9.4 7.511-14.938l.913-2.657c2.619-7.967 3.925-15.531 4.4-23.906.07-1.156.14-2.313.21-3.504.437-14.748-2.466-31.066-9.122-44.31-3.509-6.449-7.413-12.457-13.088-17.186h-2l-1-3h-2v-2c-2.83-2.246-5.944-4.078-9-6l-3.125-2.125c-12.52-6.666-26.23-6.68-40.086-6.324-13.155.65-24.365 5.044-35.789 11.449M381.875 1259.813l3.973-.038c7.33-.01 14.038.463 21.152 2.225l2.898.535c14.048 2.991 28.58 9.952 40.102 18.465l2.398 1.742c2.087 1.648 3.888 3.227 5.602 5.258 1.313 3.563 1.313 3.563 1 7-1.623 2.485-2.878 4.033-5 6l-1.824 1.707c-3.335 2.985-3.335 2.985-5.176 4.293h-2l-1 3h-2v2c-2.74 1.37-4.97 1.126-8 1l-2-1v-2l-1.719-.324c-2.636-.781-4.486-1.978-6.781-3.488-4.763-2.947-9.488-4.72-14.836-6.329-2.664-.859-2.664-.859-4.625-1.93-8.713-3.972-22.503-2.122-32.039-1.929l-2.602-.02c-10.42.376-21.621 5.652-30.398 11.02h-2l-1 3h-4v3a270 270 0 0 1-4.297 3.523c-8.422 7.302-13.023 18.83-17.101 28.946-2.958 9.481-2.96 19.057-2.977 28.906l-.007 2.108c.005 14.028 2.115 26.874 8.382 39.517 5.044 8.566 11.83 15.373 20 21l2.254 1.64c8.654 5.8 19.55 8.62 29.746 10.36 4.664.273 9.33.277 14 .313l3.793.087c8.768.06 15.995-1.39 24.207-4.4l2.813-.945c6.745-2.287 12.003-6.217 17.187-11.055 1.556-3.112 1.432-6.451 1.625-9.875l.136-2.378c.44-9.277-.133-18.491-.761-27.747-8.773-2.048-17.15-2.178-26.125-2-18.624.368-18.624.368-23.875-2-2.203-1.734-2.203-1.734-4-4-.815-3.962-.603-7.964-.562-12l-.073-3.312.006-3.188-.002-2.906L377 1361c2.044-2.13 2.044-2.13 5-4 2.777-.382 5.153-.538 7.924-.502l2.372-.016a655 655 0 0 1 7.735.022q2.695 0 5.391-.005 5.644 0 11.287.034c4.82.029 9.637.026 14.456.013 3.71-.007 7.42.001 11.129.014q2.664.006 5.33 0c2.484-.002 4.968.014 7.452.036l2.217-.014c3.12.046 5.711.42 8.663 1.441L468 1360c.51 2.87.675 5.158.631 8.032l.022 2.48c.017 2.71-.003 5.418-.024 8.129q0 2.826.007 5.654.003 5.93-.04 11.863c-.033 5.058-.027 10.116-.008 15.175.01 3.895.001 7.79-.014 11.684q-.008 2.796.002 5.593c.005 2.614-.015 5.226-.043 7.84l.02 2.318c-.068 3.886-.536 6.673-2.444 10.095-7.12 10.591-17.325 17.67-28.109 24.137l-2.887 1.746c-6.292 3.456-12.877 5.562-19.738 7.566l-2.64.773c-12.443 3.443-24.931 3.13-37.735 2.915l-2.135-.022c-18.652-.272-37.854-5.212-54.115-14.353-15.538-9.498-27.668-21.883-36.75-37.625-1.92-3.59-3.531-7.204-5-11l-1.3-3.297c-3.055-8.109-5.092-16.198-6.7-24.703l-.519-2.392c-3.728-20.217.687-43.512 7.207-62.733 7.001-18.895 19.546-33.93 34.23-47.375 6.878-5.579 13.991-9.698 22.144-13.125l2.759-1.17c15.476-6.385 30.388-8.384 47.054-8.392M1211.595 1263.873q4.576.003 9.152-.007c45.307-.058 45.307-.058 56.815 3.884l2.538.823c11.468 3.819 20.854 9.416 29.9 17.427v2h2c.938 1.32 1.863 2.653 2.727 4.023 1.535 2.384 3.185 4.672 4.835 6.977 6.238 8.945 10.216 18.7 11.268 29.606 1.196 16.845.332 32.867-6.83 48.394-3.276 6.313-7.082 11.858-12 17h-2l-1 3c-8.102 8.412-18.203 13.46-29.315 16.668-12.916 3.374-25.397 4.491-38.736 4.36l-7.49-.038q-5.853-.037-11.705-.086c-3.79-.03-7.578-.048-11.367-.064l-3.539-.04-3.298-.011-2.89-.023c-2.922.257-5.03.95-7.66 2.234l-2 2c-.317 2.357-.317 2.357-.287 5.12l-.04 3.237-.017 3.51-.044 3.595c-.047 3.804-.08 7.609-.112 11.413a3668 3668 0 0 1-.156 14.992l-.016 3.498-.04 3.256-.023 2.861c-.281 2.674-.76 4.296-2.265 6.518-2.844.948-4.622 1.129-7.57 1.133l-2.72.004-2.835-.012-2.766.012c-12.966-.019-12.966-.019-17.109-1.137-1.575-1.252-1.575-1.252-3-3-2.374-9.466-1.156-20.657-1.161-30.377l-.015-5.842q-.019-7.89-.024-15.78l-.012-9.86q-.02-15.43-.027-30.862a17337 17337 0 0 0-.05-35.616q-.033-13.78-.034-27.56 0-8.226-.025-16.453-.023-7.722-.01-15.444.002-2.838-.013-5.676a861 861 0 0 1 .004-7.726l-.025-2.286c.02-2.087.02-2.087.392-5.518 1.393-1.96 1.393-1.96 3-3 2.082-.43 2.082-.43 4.536-.507l2.841-.106 3.13-.067 3.32-.1c14.586-.39 29.179-.369 43.768-.347m-19.435 38.722L1190 1305c-.757 3.262-.757 3.262-.647 6.984l-.027 2.106c-.021 2.292-.007 4.582.01 6.875q-.005 2.394-.015 4.79-.009 5.017.027 10.034c.029 4.282.012 8.563-.018 12.845-.018 3.297-.012 6.593 0 9.89q.006 2.368-.011 4.736c-.013 2.21.006 4.417.034 6.626l.012 3.806c.415 3.448.415 3.448 2.786 6.213 2.677 2.27 2.677 2.27 5.792 2.723l3.293.003 3.755.038q2.02-.018 4.04-.04 2.095 0 4.19.007a848 848 0 0 0 8.786-.04 787 787 0 0 1 11.15-.008c2.889.01 5.777.001 8.665-.014 2.025-.007 4.05 0 6.076.007 8.55-.107 16.177-1.25 24.102-4.581a55 55 0 0 0 16-15c4.687-8.762 5.513-16.323 5.336-26.117-.355-7.638-3.066-13.208-7.027-19.621-4.105-5.784-8.513-8.995-14.891-12.008-9.762-3.581-18.48-4.711-28.879-4.688l-4.087-.015q-4.248-.014-8.496.003c-3.622.012-7.242-.009-10.864-.038a980 980 0 0 0-8.41-.012c-1.982 0-3.963-.017-5.945-.034l-3.653.028h-3.203c-2.99.356-2.99.356-5.72 2.097M768.375 1263.875l2.172-.012c4.901.01 9.627.238 14.453 1.137 1.704 1.114 1.704 1.114 3 3 .376 3.044.376 3.044.379 6.864l.013 2.127c.012 2.359.002 4.717-.007 7.075q.007 2.533.016 5.066.017 5.458.01 10.917c-.007 5.752.009 11.504.028 17.256.038 12.21.05 24.421.061 36.632.011 13.179.026 26.357.07 39.535q.028 8.58.016 17.16c-.002 3.556.009 7.113.023 10.67q.006 2.476-.004 4.953c-.008 2.252.002 4.503.016 6.754l.003 3.821c.18 3.15.18 3.15 1.655 5.569L792 1444c3.17.495 5.995.704 9.184.754l3.003.088c18.755.458 37.54.179 56.299.062q6.585-.04 13.17-.055 2.484-.009 4.967-.03c2.3-.02 4.6-.026 6.9-.03l3.95-.023c3.548.235 6.254.865 9.527 2.234l2 2c.259 2.75.259 2.75.266 6.215l.007 3.767-.023 3.956.023 3.943-.007 3.771-.007 3.469C901 1477 901 1477 899 1480c-3.588 1.077-7.08 1.13-10.807 1.14l-3.517.018-3.832.003-4.057.015q-5.497.019-10.996.024l-6.872.012q-10.755.02-21.51.027-12.409.007-24.818.05-9.598.034-19.197.034-5.73 0-11.461.025-5.388.023-10.776.01a741 741 0 0 0-5.833.026c-1.16-.005-2.321-.01-3.517-.017l-3.05.005c-3.265-.44-5.14-1.392-7.757-3.372-1.064-3.192-1.138-5.491-1.158-8.847l-.03-3.701-.017-4.07-.03-4.284q-.04-5.835-.068-11.67-.035-6.15-.076-12.297-.067-10.371-.124-20.741-.081-14.457-.174-28.913a71700 71700 0 0 1-.154-25.143c-.097-16.066-.185-32.131-.195-48.197l-.005-5.688c0-8.214.108-16.424.281-24.637l.066-3.27c.07-2.577.216-5.007.684-7.542 1.672-2.613 1.672-2.613 4-4 4.706-1.281 9.527-1.15 14.375-1.125"/><path fill="#ffde89" d="M1231 574c2.325.188 2.325.188 5 1 1.526 2.158 1.526 2.158 2.797 4.996l1.453 3.12 1.5 3.322c4.833 10.18 9.276 18.457 18.625 25.125 4.434 2.428 8.04 2.79 13.004 2.703 3.35-.34 5.777-1.146 8.687-2.82 6.628-4.954 10.865-11.769 15.137-18.716 2.8-4.255 5.963-8.354 9.797-11.73h3v2h2a2769.985 2769.985 0 0 0 1.544 11.731q.391 2.952.77 5.906c1.644 14.911 1.644 14.911 7.686 28.363 3.735 2.166 6.886 3.211 11.188 3.5 6.137-.25 11.469-2.604 16.812-5.5 3.523-2.462 6.75-5.192 10-8a437 437 0 0 1 4.875-3.875l2.117-1.68c1.961-1.411 3.77-2.532 6.008-3.445 2.75.375 2.75.375 5 1a139 139 0 0 1-2.145 14.8c-2.075 10.62-3.517 21.765-1.128 32.45.89 2.491 1.789 4.564 3.273 6.75 2.442 2.121 2.442 2.121 5 3l2 1c11.504 1.077 21.763-1.004 32.871-3.809 4.705-1.166 9.303-1.764 14.129-2.191l1 2a623 623 0 0 1-3.187 3.75l-1.793 2.11c-2.191 2.321-4.49 4.193-7.02 6.14l-3.262 2.578q-1.712 1.337-3.426 2.672l-1.76 1.39c-1.489 1.158-3.018 2.263-4.552 3.36h-2v2c-1.469 1.297-1.469 1.297-3.5 2.75l-2.23 1.621L1398 695a300 300 0 0 0-13.5 10.5l-2.828 2.313a526 526 0 0 0-4.906 4.062c-3.047 2.456-5.475 4.024-9.204 5.313-4.22-.223-6.555-1.296-10.124-3.473-3.676-2.586-7.057-5.498-10.497-8.387-5.001-3.958-10.435-7.127-15.941-10.328l-1.812-1.06c-26.048-15.21-56.73-27.999-86.997-31.19-2.191-.75-2.191-.75-4.898-2.805C1235 657 1235 657 1234.109 653.367a134 134 0 0 1-.359-4.492c-.07-.835-.14-1.67-.21-2.53-.79-10.621-.979-21.298-1.2-31.945-.149-7.021-.411-13.976-1.128-20.967-.337-3.875-.32-7.733-.274-11.62l.013-2.307q.02-2.752.049-5.506"/><path fill="#deba61" d="m1250.867 977.734 3.934-.007 2.03.012c2.032.01 4.063 0 6.095-.012 6.663.013 12.748.07 19.074 2.273 1.938 1.938 1.938 1.938 3 5 1.164 8.197 1.164 16.468 1.193 24.73l.025 4.025c.026 4.359.041 8.718.055 13.077l.017 4.527q.033 9.411.051 18.821.023 13.44.107 26.879.056 9.483.063 18.966c.004 3.769.016 7.537.048 11.305.036 4.196.032 8.391.024 12.587l.05 3.764c-.06 8.167-.06 8.167-1.685 11.43-1.306 1.66-1.306 1.66-3.948 3.889-2.852.741-2.852.741-5.98.734l-3.505.047-3.703-.031q-3.78.045-7.558.105l-3.734.049c-4.793.13-9.513.573-14.27 1.159l-2.27.278c-1.661.21-3.32.433-4.98.659v-2q-3.877.39-7.75.813l-2.335.252c-5.715.669-11.03 1.905-16.497 3.74L1206 1145c-2.324-1.93-2.324-1.93-4-4l2.344-1.723A875 875 0 0 0 1214 1132l2.227-1.664c4.434-3.559 7.757-7.704 11.085-12.274l1.276-1.737c2.921-4.162 5.278-8.332 6.412-13.325.402-5.555.325-11.09.258-16.656q-.013-2.48-.022-4.958-.022-5.24-.067-10.477c-.07-8.1-.09-16.198-.114-24.297q-.013-3.982-.028-7.963c-.046-13.116.03-26.224.348-39.336l.047-2.426q.068-3.263.164-6.524l.095-3.49c.319-2.873.319-2.873.97-5.146 1.349-1.727 1.349-1.727 4.045-2.96 3.5-.812 6.58-1.026 10.171-1.033"/><path fill="#fcfcfc" d="m1584.23 1263.867 2.436-.004 2.522.012 2.462-.012c4.103.007 8.186.128 12.276.457l2.157.173c1.917.507 1.917.507 3.61 1.737 1.7 2.302 1.888 3.922 2.307 6.77.096 2.754.144 5.483.14 8.236l.01 2.502q.01 4.147.011 8.293l.015 5.948q.019 8.077.024 16.153.005 5.045.012 10.088.02 15.78.027 31.558.007 18.222.05 36.444.033 14.084.034 28.166 0 8.414.025 16.827.023 7.908.01 15.818-.002 2.904.013 5.808c.013 2.641.007 5.282-.004 7.923l.025 2.327c-.032 3.425-.323 5.769-1.852 8.861C1609 1480 1609 1480 1608 1481c-23.235 2.132-23.235 2.132-31 0-2.115-1.518-2.115-1.518-4-4a55 55 0 0 1-.501-8.35l-.017-2.576c-.014-2.853.001-5.705.016-8.558q-.005-3.066-.016-6.13c-.014-5.554-.003-11.107.014-16.661.013-5.807.007-11.613.003-17.42q-.002-14.627.034-29.254c.027-11.282.029-22.563.017-33.844q-.014-16.264.01-32.53.008-6.927 0-13.856-.005-8.155.028-16.31.008-2.997 0-5.994c-.005-2.722.007-5.444.024-8.166l-.018-2.41c.038-3.26.185-5.55 1.81-8.417 1.596-1.524 1.596-1.524 3.52-2.266a51 51 0 0 1 6.306-.39"/><path fill="#ffde89" d="M1305 709c2.671.965 4.783 1.824 7 3.625l2 1.375h5c1.813 1.5 1.813 1.5 3 3v-7c13.87 6.638 26.34 18.395 35 31 12.372 18.702 18.437 38.226 20.285 60.426.546 18.288-3.465 36.92-12.054 53.072-6.074 10.846-13.484 20.73-23.231 28.502l-1.53 1.35c-4.118 3.636-8.354 6.715-13.033 9.587l-2.105 1.298c-11.365 6.91-24.448 14.693-37.95 16.023-2.132-.133-2.132-.133-5.382-1.258-1.937-2.125-1.937-2.125-3-5l-.437-3.375c-.515-3.315-.913-4.455-2.626-7.125-1.768-2.825-1.946-3.676-2.124-7.25L1274 884l-1-3-3-1 1-3h2v-2h2v-3l3.516-1.102c17.136-5.466 31.915-12.546 44.359-25.836 4.286-5.016 7.83-10.355 11.125-16.062l1.402-2.355c7.471-13.557 9.08-29.627 8.88-44.836-.534-15.882-4.326-31.916-12.594-45.559-5.911-8.74-12.645-15.305-21.028-21.621-4.57-3.447-4.57-3.447-5.66-5.629"/><path fill="#ffde89" d="M1186.339 678.65q5.183-.02 10.367-.082c18.41-.214 36.451.093 54.696 2.768 1.09.16 1.09.16 2.201.321 8.003 1.2 15.702 2.818 23.397 5.343l6.625 1.688c12.834 3.648 28.886 10.823 38.375 20.312.875 2.563.875 2.563 1 5l-1 3c-10.105-3.29-10.105-3.29-12.813-5.437-2.525-1.804-4.962-2.66-7.894-3.622-2.293-.941-2.293-.941-5.523-2.828-12.094-7.022-26.182-9.875-39.77-12.488l-1.986-.385c-15.592-2.99-30.822-3.425-46.643-3.478l-3.098-.013q-8.087-.03-16.175-.044c-5.568-.011-11.137-.046-16.705-.085a2458 2458 0 0 0-12.87-.038q-3.083-.008-6.164-.035c-2.86-.025-5.72-.024-8.58-.017l-2.574-.039c-2.613-.022-2.613-.022-6.205.509l-2.024 1.451c-1.5 3.917-1.393 7.636-1.364 11.796l-.016 2.835c-.013 3.094-.005 6.187.006 9.281l-.01 6.457q-.005 6.77.017 13.54c.017 5.777.007 11.554-.01 17.33-.012 4.447-.008 8.893 0 13.34q.004 3.195-.008 6.388c-.008 2.983.004 5.964.02 8.947l-.018 2.653c.056 5.379.752 9.256 3.407 13.982 3.024 1.008 5.269 1.168 8.437 1.313 11.913.854 24.445 2.81 35.372 7.769 2.413 1.011 4.768 1.579 7.316 2.168 7.167 1.858 13.522 5.332 20.031 8.777 1.575.831 3.161 1.639 4.75 2.442 15.666 8.116 29.67 19.285 42.551 31.234a104 104 0 0 0 5.16 4.367 41.7 41.7 0 0 1 5.695 5.555c.512.59 1.024 1.18 1.551 1.79L1267 864v2l1.625.813L1277 871l-2 1v3h-2v2h-2v3h3l.148 1.758c.56 5.852 1.357 10.86 4.54 15.93L1280 900l-1 3c-2.382-2.723-4.266-5.372-5.813-8.625-4.122-8.497-9.611-16.084-15.25-23.625l-1.498-2.004a167 167 0 0 0-9.335-11.292L1246 856v-2c-.575-.26-1.15-.52-1.742-.79-2.428-1.301-4.283-2.801-6.383-4.585-17.436-14.108-36.528-24.83-57.875-31.625l-3.57-1.184c-5.89-1.9-11.678-3.384-17.797-4.324-2.633-.492-2.633-.492-5.957-1.508-3.936-1.054-7.55-1.393-11.614-1.609l-2.072-.117A712 712 0 0 0 1134 808c-1.779 2.681-2.031 4.443-2.262 7.71q-.022 2.294-.016 4.592l-.018 2.56c-.017 2.833-.02 5.668-.023 8.502l-.03 6.09a6347 6347 0 0 0-.056 16.549c-.015 5.763-.042 11.526-.068 17.289q-.069 16.372-.116 32.745c-.039 12.425-.088 24.85-.138 37.276q-.155 38.344-.273 76.687h-1l-.018-3.467a13148 13148 0 0 0-.218-33.11q-.068-8.5-.11-17.002c-.125-25.014-.692-49.884-2.4-74.844-1.307-19.248-1.6-38.38-1.402-57.665.062-6.407.093-12.814.126-19.22q.022-3.297.058-6.592l.03-3.95.034-3.468c.086-2.654.086-2.654-1.1-4.682a125 125 0 0 1-.389-5.67l-.182-3.624-.183-3.96-.198-4.098q-.262-5.475-.508-10.952-.153-3.375-.31-6.752c-1.53-33.46-1.53-33.46-1.48-50.131l.01-3.848c.055-5.121.314-9.918 1.24-14.965l-2.938.625c-4.576.672-8.673-.32-13.062-1.625l-2-1v2l-2.379-.035c-8.366-.107-8.366-.107-16.621 1.035l-2 2c-.4 2.323-.74 4.657-1 7h2c2.175 3.263 2.614 5.143 3 9-.438 2.875-.438 2.875-1 5l2 1-.035 2.52-.028 3.293-.035 3.269c-.038 2.983-.038 2.983 1.098 5.918l2-2c-.458 3.47-.891 6.674-2 10l2 1q.08 4.25.125 8.5l.05 2.398c.045 5.408-.76 9.89-2.175 15.102-.357 3.988-.24 7.826.562 11.75.52 2.676.111 4.631-.562 7.25l2 1-.5 1.813c-.611 2.3-.611 2.3-.5 5.187-.565 3.015-1.227 4.34-3 7-.167 3.125-.167 3.125 0 6l-2 1v-2l-4 4 1.5 1.375L1085 811v2h2c5.53 18.823 2.974 39.995 1.41 59.28-1.57 19.623-1.903 39.223-2.118 58.902l-.081 7.177-.039 3.504a681 681 0 0 1-.824 25.436c-.897 17.936-.577 35.87 1.652 53.701l16 1v1c-2.208.082-4.416.14-6.625.188l-3.727.105c-3.994-.32-6.303-1.11-9.648-3.293-1.582-2.36-1.997-3.964-2.236-6.812l.02-3.403.005-1.963c.007-2.253.03-4.506.05-6.76q.015-2.528.025-5.057c.025-5.114.065-10.229.107-15.343a10498 10498 0 0 0 .116-16.242l.015-2.252a55437 55437 0 0 1 .322-44.092q.107-14.287.224-28.573.095-11.527.177-23.054.043-6.045.096-12.09.049-5.655.086-11.31.023-3.016.054-6.033c.05-8.723-.373-17.324-1.061-26.016l-3-1h2l-.125-3.5c-.104-2.9.247-4.884 1.134-7.687 1.684-6.645 1.163-13.544 1.038-20.344l-.062-4.56q-.065-4.77-.152-9.54c-.07-4.03-.125-8.06-.174-12.089q-.061-4.71-.14-9.42-.033-2.224-.061-4.45c-.178-13.793-.612-27.68-6.083-40.535-3.856-9.303-3.856-9.303-3.375-14.875 3.449-2.088 6.261-2.301 10.258-2.414l3.795-.117 4.072-.094 4.198-.117c9.749-.26 19.495-.345 29.246-.221a224 224 0 0 0 15.457-.376c15.757-.93 31.533-.957 47.313-1.011"/><path fill="#f1d074" d="m1090.375 681.688 2.625.03c5.883.114 11.715.502 17.563 1.157l2.144.237c3.457.444 5.337.917 8.293 2.888v2l5 1 1 4 2-1c.771 2.74 1.124 5.168 1.12 8.012l.004 2.388-.01 2.591v2.75c0 2.998-.009 5.996-.016 8.993l-.005 6.238q-.006 8.208-.024 16.414-.014 8.376-.02 16.75-.016 16.433-.049 32.864h-1l-2-12c-.263 9.632.383 18.5 2 28l4-2v2a241 241 0 0 0 4.375-.812l2.46-.458L1142 803l2-3a424 424 0 0 1 4.75.375c.882.07 1.763.14 2.672.21 2.569.414 4.336 1.127 6.578 2.415l-2 1v2h-24l-1 212h-1l-.018-3.467a13148 13148 0 0 0-.218-33.11q-.068-8.5-.11-17.002c-.125-25.014-.692-49.884-2.4-74.844-1.307-19.248-1.6-38.38-1.402-57.665.062-6.407.093-12.814.126-19.22q.022-3.297.058-6.592l.03-3.95.034-3.468c.086-2.654.086-2.654-1.1-4.682a125 125 0 0 1-.389-5.67l-.182-3.624-.183-3.96-.198-4.098q-.262-5.475-.508-10.952-.153-3.375-.31-6.752c-1.53-33.46-1.53-33.46-1.48-50.131l.01-3.848c.055-5.121.314-9.918 1.24-14.965l-2.937.625c-4.577.672-8.674-.32-13.063-1.625l-2-1v2l-2.379-.035c-8.366-.107-8.366-.107-16.621 1.035l-2 2c-.4 2.323-.74 4.657-1 7h2c2.175 3.263 2.614 5.143 3 9-.437 2.875-.437 2.875-1 5l2 1-.035 2.52c-.01 1.086-.018 2.173-.027 3.293l-.036 3.269c-.038 2.983-.038 2.983 1.098 5.918l2-2c-.458 3.47-.891 6.674-2 10l2 1q.08 4.25.125 8.5l.05 2.398c.045 5.408-.76 9.89-2.175 15.102-.357 3.988-.24 7.826.563 11.75.52 2.676.11 4.631-.563 7.25l2 1-.5 1.813c-.611 2.3-.611 2.3-.5 5.187-.565 3.015-1.227 4.34-3 7-.167 3.125-.167 3.125 0 6l-2 1v-2l-4 4 1.5 1.375L1085 811v2h2c5.53 18.823 2.974 39.995 1.41 59.28-1.57 19.623-1.903 39.223-2.118 58.902l-.081 7.177-.039 3.504a681 681 0 0 1-.824 25.436c-.897 17.936-.577 35.87 1.652 53.701l16 1v1c-2.208.082-4.416.14-6.625.188l-3.727.105c-3.994-.32-6.303-1.11-9.648-3.293-1.582-2.36-1.997-3.964-2.236-6.812l.02-3.403.005-1.963c.007-2.253.03-4.506.05-6.76q.015-2.528.025-5.057c.025-5.114.065-10.229.107-15.343a10498 10498 0 0 0 .116-16.242l.015-2.252q.143-20.77.302-41.54l.02-2.552q.107-14.287.224-28.573.095-11.527.177-23.054.043-6.045.096-12.09.049-5.655.086-11.31.023-3.016.054-6.033c.05-8.723-.373-17.324-1.061-26.016l-3-1h2l-.125-3.5c-.104-2.9.247-4.884 1.134-7.687 1.684-6.645 1.163-13.544 1.038-20.344l-.062-4.56q-.065-4.77-.152-9.54c-.07-4.03-.125-8.06-.174-12.089q-.061-4.71-.14-9.42-.033-2.224-.061-4.45c-.206-18.873-.206-18.873-4.728-37.039-1.628-5.286-2.068-10.895-2.73-16.371 5.649-2.87 10.084-3.446 16.375-3.312"/><path fill="#977c49" d="M926 1010h2c.23 1.223.461 2.447.7 3.707 4.59 24.501 4.59 24.501 14.3 47.293a469 469 0 0 1 2.813 5.438l1.207 2.308c1.047 2.408 1.556 4.67 1.98 7.254h2a133 133 0 0 1 4.375 6.75c2.575 4.223 5.006 7.826 8.625 11.25a115 115 0 0 1 2.75 3.75c2.764 3.765 5.845 6.977 9.223 10.195 2.027 2.055 2.027 2.055 4.191 4.84 3.466 4.211 7.787 7.3 12.149 10.527l2.474 1.917c3.863 2.87 6.972 5.077 11.818 5.689l3.395.082 1 3c2.289 1.373 4.458 2.153 7 3 3.634-.657 3.634-.657 7-2l1-3c3.511 1.654 6.721 3.677 10 5.75 9.91 6.154 19.845 10.795 31 14.25q2.345.808 4.688 1.625c3.674 1.227 7.357 2.122 11.148 2.91 1.966.422 3.91.939 5.851 1.465 11.355 2.83 22.855 3.37 34.5 3.313l2.178-.004c13.958-.044 27.196-1.007 40.466-5.593 3.074-1.015 6.206-1.725 9.357-2.466 8.95-2.241 17.127-6.127 24.812-11.25 2.841.355 5.28 1.093 8 2a141 141 0 0 0 7.5-1.937c6.61-1.793 12.62-2.588 19.5-2.063l-1 3c-2.246.887-2.246.887-5.437 1.688-7.294 1.95-14.527 4.056-21.75 6.25l-3.309.98c-6.251 1.902-12.154 4.118-18.054 6.93-7.177 3.375-14.559 5.553-22.263 7.34l-2.115.506c-11.601 2.554-23.577 2.472-35.403 2.436-2.102-.005-4.203 0-6.304.007-13.547.01-26.677-.505-39.865-3.887l-3.282-.819c-8.228-2.09-16.255-4.478-24.218-7.431l-2.388-.867c-17.81-6.48-34.641-13.88-50.612-24.133l-3.367-2.148c-8.325-5.53-15.476-11.912-22.633-18.852l-2.371-2.25c-1.59-1.536-3.12-3.135-4.629-4.75v-2h-2c-17.704-20.66-29.793-46.265-35.445-72.781-1.099-6.375-1.854-12.79-2.555-19.219"/><path fill="#e7c676" d="m1250.867 977.734 3.934-.007 2.03.012c2.032.01 4.063 0 6.095-.012 6.663.013 12.748.07 19.074 2.273 1.938 1.938 1.938 1.938 3 5 1.449 9.488 1.146 19.172 1.133 28.742q0 2.549.003 5.096.002 5.308-.006 10.615-.006 6.794.004 13.588.004 5.247 0 10.495 0 2.505.002 5.011.003 3.495-.007 6.992l.007 2.075A49 49 0 0 1 1285 1078a97 97 0 0 0-.174 4.819l-.04 2.81-.032 3-.1 6.322q-.072 4.971-.13 9.941c-.04 3.204-.092 6.408-.145 9.612l-.026 3.005-.05 2.802-.031 2.457c-.299 2.452-1.049 4.104-2.272 6.232l-.937-3.437c-.692-3.35-.692-3.35-2.063-4.563a90 90 0 0 1-.205-5.07l-.06-3.276-.051-3.564-.063-3.628q-.097-5.762-.184-11.524l-.13-7.792q-.162-9.573-.307-19.146h-1l-.076-3.143q-.144-5.893-.296-11.786-.065-2.527-.125-5.056c-.205-8.475-.452-16.931-1.034-25.39-.474-7.053-.587-14.058-.532-21.125l.014-3.395q.018-4.052.049-8.105c-6.399-.685-12.572-1.152-19-.75l-3.812.203c-3.13.3-3.13.3-5.083 1.895-1.827 2.731-1.84 5.415-2.105 8.652-.13 4.107-.047 7.686.563 11.75.75 5.394.35 10.895-.563 16.25l-2 3c-.274 2.127-.274 2.127-.195 4.45l.02 2.568.05 2.67.027 2.705q.036 3.303.098 6.607l2-1c-.3 1.673-.636 3.34-1 5l-1 1a101 101 0 0 0-.062 5.39l.023 3.34.078 6.993.024 3.355.035 3.075c-.094 2.731-.48 5.19-1.098 7.847h-1l-2-23c-.763 4.579-1.067 7.188-.562 11.563.836 7.467.836 7.467.562 10.437a79 79 0 0 1-3 4c-1.297-61.594-1.297-61.594-.687-86.687l.051-2.51q.077-3.44.187-6.877l.114-3.8c.335-3.126.335-3.126.988-5.434C1238 980 1238 980 1240.696 978.767c3.5-.812 6.58-1.026 10.171-1.033"/><path fill="#c8ae6b" d="M1126 770h1l.244 1.728c.367 2.571.749 5.14 1.131 7.71l.383 2.72.39 2.588c.116.79.23 1.582.35 2.396L1130 789l2 1 1.438 3.5L1135 797c3.024 1.008 5.269 1.168 8.438 1.313 11.912.854 24.444 2.81 35.37 7.769 2.414 1.011 4.769 1.579 7.317 2.168 7.167 1.858 13.522 5.332 20.031 8.777 1.575.831 3.161 1.639 4.75 2.442 15.666 8.116 29.67 19.285 42.551 31.234a104 104 0 0 0 5.16 4.367 41.7 41.7 0 0 1 5.696 5.555l1.55 1.79L1267 864v2l1.625.813L1277 871l-2 1v3h-2v2h-2v3h3l.148 1.758c.56 5.852 1.357 10.86 4.54 15.93L1280 900l-1 3c-2.382-2.723-4.266-5.372-5.812-8.625-4.123-8.497-9.612-16.084-15.25-23.625l-1.499-2.004a167 167 0 0 0-9.335-11.292L1246 856v-2c-.575-.26-1.15-.52-1.742-.79-2.428-1.301-4.283-2.801-6.383-4.585-17.436-14.108-36.528-24.83-57.875-31.625l-3.57-1.184c-5.89-1.9-11.678-3.384-17.797-4.324-2.633-.492-2.633-.492-5.965-1.5-3.88-1.05-7.474-1.47-11.48-1.742l-3.958-.297-3.23.047-2 2v-4c18.19-1.937 18.19-1.937 24 0v-2l-2-1-1.75-1.062c-2.846-1.186-5.198-1.077-8.25-.938v2c-1.562 1-1.562 1-4 2-2.332.078-4.668.09-7 0v-2c-3.167 1.833-3.167 1.833-5 5-.09-1.338-.09-1.338-.184-2.703l-.254-3.547c-.08-1.16-.162-2.32-.246-3.516-.206-3.036-.206-3.036-.83-5.125-.56-2.426-.599-4.604-.584-7.093l.01-2.832.025-2.934.014-2.98q.018-3.636.049-7.27"/><path fill="#c69d4f" d="m1080 800 1 2c-.156 1.91-.156 1.91-.5 4.063L1080 810l1 1c.04 1.666.043 3.334 0 5l-1.5-1.562c-2.507-1.71-2.507-1.71-5.875-1.5-5.264.895-10.014 3.215-14.848 5.398a117 117 0 0 1-7.523 3.078c-12.858 4.756-23.477 11.359-33.363 20.934L1016 844h-2l-.8 1.773c-1.244 2.31-2.606 3.936-4.388 5.852-6.351 7.118-11.39 14.94-15.812 23.375h-2l-.816 2.535c-1.259 3.684-2.664 7.294-4.121 10.903l-.764 1.908A530 530 0 0 1 980 903h-4l2-12h2a296 296 0 0 0 1.465-7.64l.472-2.61.465-2.64L983 876l2-1a84 84 0 0 0 2.5-4.5 84 84 0 0 1 2.5-4.5l2-1c1.557-2.732 2.952-5.528 4.367-8.336 1.646-2.686 2.946-4.065 5.633-5.664h2l1-3 2-2 1.227-1.55c3.629-4.573 7.503-7.874 12.773-10.45h2v-4l-2.75 1.375a234 234 0 0 1-5.252 2.564c-7.618 4.044-13.627 11.621-19.594 17.696a216 216 0 0 1-12.664 11.826c-2.148 1.9-4.05 3.937-5.928 6.101a1036 1036 0 0 1-11.5 12.813l-1.62 1.803c-3.293 3.588-6.528 6.288-10.692 8.822.523-4.758 2.758-8.124 5.375-12q1.2-1.812 2.398-3.625l1.16-1.742c1.42-2.173 2.742-4.401 4.067-6.633l2-3h2l.754-1.738c7.545-13.695 26.202-24.737 39.246-32.637 5.862-3.492 11.844-6.748 17.875-9.937l2.34-1.238c11.048-5.764 22.13-10.73 34.473-12.825 4.842-.884 8.308-1.828 12.25-4.812A68 68 0 0 0 1080 800"/><path fill="#fcfcfc" d="M2164.75 1266.75c5.717 2.784 8.953 6.7 12.5 11.875 2.307 3.484 3.638 6.147 4.023 10.379.18 6.273.1 11.196-2.773 16.871a100 100 0 0 1-2.5 4.125h-2v3c-1.863 1.57-1.863 1.57-4.312 3.125l-2.426 1.57c-4.225 2.438-7.705 2.469-12.512 2.493l-3.89.042c-4.955-.295-9.046-1.231-13.407-3.632l-2.203-1.535-2.234-1.528c-3.95-3.008-5.735-5.607-7.704-10.223-2.085-5.249-3.034-8.716-2.312-14.312.96-4.963 2.307-9.564 5.313-13.687 4.66-4.955 11.499-7.75 17.687-10.313 6.525-1.73 12.556-.8 18.75 1.75M2143 1277c-3.051 1.987-5.465 4.394-7.875 7.125-1.803 4.607-1.734 9-1.125 13.875.846 2.851 1.996 4.809 4 7 2.472 2.336 4.791 3.85 8 5 4.046.441 7.954.436 12 0l2-1v-2l2.625-.062c3.249-.683 3.249-.683 5.074-2.211 2.44-2.517 3.997-4.781 5.074-8.133.439-2.68.552-4.896.227-7.594-1.645-4.19-4.156-7.156-7.312-10.312-3.384-2.125-6.819-3.673-10.688-4.688-4.662 0-7.839.988-12 3"/><path fill="#deba61" d="M1083 700h2c2.175 3.263 2.614 5.143 3 9-.437 2.875-.437 2.875-1 5l2 1-.035 2.52c-.01 1.086-.018 2.173-.027 3.293l-.036 3.269c-.038 2.983-.038 2.983 1.098 5.918l2-2c-.458 3.47-.891 6.674-2 10l2 1q.08 4.25.125 8.5l.05 2.398c.045 5.408-.76 9.89-2.175 15.102-.357 3.988-.24 7.826.563 11.75.52 2.676.11 4.631-.563 7.25l2 1-.5 1.813c-.611 2.3-.611 2.3-.5 5.187-.565 3.015-1.227 4.34-3 7-.167 3.125-.167 3.125 0 6l-2 1v-2l-4 4 1.5 1.375L1085 811v2h2c5.53 18.823 2.974 39.995 1.41 59.28-1.57 19.623-1.903 39.223-2.118 58.902l-.081 7.177-.039 3.504a681 681 0 0 1-.824 25.436c-.897 17.936-.577 35.87 1.652 53.701l16 1v1c-2.208.082-4.416.14-6.625.188l-3.727.105c-3.994-.32-6.303-1.11-9.648-3.293-1.582-2.36-1.997-3.964-2.236-6.812l.02-3.403.005-1.963c.007-2.253.03-4.506.05-6.76q.015-2.528.025-5.057c.025-5.114.065-10.229.107-15.343a10498 10498 0 0 0 .116-16.242l.015-2.252q.143-20.77.302-41.54l.02-2.552q.107-14.287.224-28.573.095-11.527.177-23.054.043-6.045.096-12.09.049-5.655.086-11.31.023-3.016.054-6.033c.05-8.723-.373-17.324-1.061-26.016l-3-1h2v-7h2v-2h2c1.732-10.114 2.312-19.943 2.3-30.187l.014-4.548q.01-4.73.002-9.46c-.006-4 .01-8 .034-12 .015-3.123.016-6.246.013-9.37q0-2.209.015-4.419c.053-8.735-.645-16.737-2.735-25.23C1083 703 1083 703 1083 700"/><path fill="#fcfcfc" d="M2126 1390c2.73-.25 2.73-.25 6 0 6.824 3.188 12.524 8.15 18.016 13.223 2.489 2.23 5.17 3.98 7.984 5.777a446 446 0 0 1 5.973 4.828c2.016 1.38 2.016 1.38 4.654 1.245L2171 1415l.136-1.972c.211-2.948.444-5.894.677-8.84l.212-3.104.245-2.979.206-2.745c.524-2.36.524-2.36 1.937-4.19L2176 1390c2.125.188 2.125.188 4 1 1.568 3.136 1.163 6.487 1.168 9.93l.01 2.384q.007 2.499.007 4.998c.002 2.546.02 5.091.04 7.637q.005 2.428.005 4.856l.022 2.304c-.013 2.977-.12 5.526-1.134 8.34C2179 1433 2179 1433 2176.875 1434c-3.628 0-5.87-1.046-9.027-2.758-2.511-1.688-4.042-3.834-5.848-6.242a153 153 0 0 0-4.16-2.703c-3.382-2.384-6.338-5.276-9.375-8.078-4.416-4.157-4.416-4.157-9.653-7.032L2137 1407l-2 1c-1.367 5.88-1.002 11.79-.84 17.793-.16 3.207-.16 3.207-1.012 5.578L2132 1433c-2.437.875-2.437.875-5 1l-3-2c-1.414-6.922-1.184-14.022-1.187-21.062l-.038-3.471c-.01-5.866.123-10.959 2.225-16.467zM2170 1332c2.48.61 2.48.61 5 2 3.578 4.626 5.656 9.793 6.555 15.555.217 5.847-.254 10.675-2.742 16.007-3.57 6.102-8.002 9.768-13.946 13.422-4.901 2.666-9.833 2.34-15.281 2.301-4.898-.39-8.405-1.8-12.586-4.285l-3.187-1.687c-4.892-4.023-7.86-8.992-10.25-14.813-1.084-6.742.175-13.03 2.496-19.41 1.56-3.466 3.066-5.549 5.941-8.09 3.313.125 3.313.125 6 1 .617 1.734.617 1.734 1 4-.742 2.078-.742 2.078-1.875 4.25-2.098 4.443-2.966 7.822-3.125 12.75.447 3.638 1.295 5.99 3.39 8.992 2.108 2.281 3.811 3.633 6.61 5.008 5.983.824 11.978.964 17.793-.89 3.91-1.966 6.4-5.052 9.02-8.485 1.367-2.663 1.367-2.663 1.562-6-.529-5.112-2.288-8.994-5.125-13.25L2166 1338c.313-2.812.313-2.812 1-5z"/><path fill="#fff5ab" d="M1372 660h2l.438 2.25c1.31 2.715 1.31 2.715 3.136 3.973 5.328 2.831 10.651 3.357 16.63 3.33 8.088-.323 15.852-2.385 23.667-4.362 4.705-1.166 9.303-1.764 14.129-2.191l1 2a623 623 0 0 1-3.187 3.75l-1.793 2.11c-2.191 2.321-4.49 4.193-7.02 6.14l-3.262 2.578q-1.712 1.337-3.426 2.672c-.58.459-1.16.918-1.76 1.39-1.489 1.158-3.018 2.263-4.552 3.36h-2v2c-1.469 1.297-1.469 1.297-3.5 2.75l-2.23 1.621L1398 695a300 300 0 0 0-13.5 10.5l-2.828 2.313a526 526 0 0 0-4.906 4.062c-3.047 2.456-5.475 4.024-9.204 5.313-4.207-.222-6.538-1.284-10.093-3.458-4.715-3.304-9.08-7.012-13.469-10.73a868 868 0 0 0-5-4l1-5c1.938.375 1.938.375 4 1l1 2 3 1v2l2.125.75c3.27 1.422 6.016 3.122 8.875 5.25v2l10-1v-2l3.188-1.187c3.76-1.612 6.053-3.764 8.812-6.813 2.61-2.672 4.889-4.926 8-7l-1 4c2.358-.627 2.358-.627 5-2 2.458-2.6 2.458-2.6 4.688-5.625A132 132 0 0 1 1402 681h2l1 3h2l1-3 2 1 1-2h2l2-4h2l-2-2c-2.812.088-2.812.088-5.937.688l-3.215.511c-2.862.568-2.862.568-4.54 2.395L1400 679c-3-.187-3-.187-6-1l-3-2-1 2-6-1v-2l-1.898-.516-2.477-.734-2.46-.703L1375 672c-1.29-2.11-1.29-2.11-2-4h2v-2l-4-2z"/><path fill="#fcfcfc" d="M2128 1444c2.375 1.125 2.375 1.125 5 3 1.96 4.5 2.168 8.258 2 13.125-.198 4.71-.198 4.71.82 9.242L2137 1471c2.86 1.171 2.86 1.171 6 1 2.396-1.646 2.396-1.646 4-4 1.43-4.29 1.333-8.567 1.523-13.066L2149 1452l3-2c2.063.125 2.063.125 4 1 2.103 3.252 2.338 6.184 2.563 10 .212 3.462.466 6.663 1.437 10l3.36.332 4.39.48 2.21.213c3.29.374 5.727.779 8.556 2.55L2180 1476c-.375 2.438-.375 2.438-1 5-2.437 1.218-4.046 1.146-6.77 1.177l-3.003.039-3.254.022-3.333.025q-3.495.02-6.988.032c-3.571.017-7.142.061-10.713.105q-3.39.015-6.779.026l-3.248.053-3.013-.009-2.654.018L2127 1482c-1.77-1.917-2.803-3.442-3.67-5.895-.753-4.808-.644-9.687-.705-14.543l-.113-3.431c-.033-3.125-.004-6.044.488-9.131 1.455-2.424 2.637-3.364 5-5"/><path fill="#f1d074" d="m1250.867 977.734 3.934-.007 2.03.012c2.032.01 4.063 0 6.095-.012 13.457.026 13.457.026 19.074 2.273 1.681 2.07 1.681 2.07 3 5 .27 2.807.38 5.385.34 8.187l.002 2.455a995 995 0 0 1-.049 8.003q-.009 2.78-.013 5.56c-.011 4.872-.04 9.743-.074 14.614-.03 4.974-.044 9.947-.06 14.921A9201 9201 0 0 1 1285 1068h-2c-1.83-7.63-2.39-15.011-2.598-22.84l-.118-3.645a3521 3521 0 0 1-.347-11.453q-.173-5.721-.356-11.442a2127 2127 0 0 1-.214-7.092c-.208-10.306-.208-10.306-1.367-20.528-1.812-2.562-3.194-3.533-5.852-5.073-2.405-1.038-4.093-1.185-6.703-1.193l-2.613-.007-2.707.023-2.684-.023c-4.822.014-8.994.182-13.441 2.273-2.156 2.736-2.156 2.736-2.265 5.388l-.022 2.859-.04 3.248-.017 3.513-.044 3.622c-.047 3.831-.08 7.663-.112 11.495q-.063 7.536-.156 15.07l-.016 3.477c-.08 6.412-.687 12.123-2.328 18.328h-1l-1 9h-1c-.746-20.407-1.161-40.77-.687-61.187l.051-2.638q.08-3.704.187-7.405l.044-2.214c.094-2.737.327-5.274 1.058-7.917C1238 980 1238 980 1240.696 978.767c3.5-.812 6.58-1.026 10.171-1.033"/><path fill="#deba61" d="M1122 750h2l.07 1.657q.357 8.517.73 17.032.137 3.18.27 6.361.191 4.566.395 9.13l.117 2.885.12 2.669.102 2.355c.09 1.995.09 1.995 1.196 3.911.076 2.049.086 4.1.066 6.15l-.03 3.95-.022 2.133q-.031 3.379-.048 6.758c-.033 6.411-.072 12.822-.137 19.233-.194 19.535.308 38.882 1.648 58.374 1.651 24.178 2.054 48.283 2.024 72.513-.006 5.762.026 11.522.065 17.284.026 4.502.029 9.004.025 13.506q.002 3.195.03 6.39c.021 2.928.012 5.854-.006 8.783l.04 2.624c-.034 2.399-.034 2.399-.655 6.302-2.317 2.04-2.317 2.04-5 3-3.55.293-3.55.293-7.312.188l-3.801-.083L1111 1023l2-1v-2l15-3a324679 324679 0 0 0-2.216-72.497 85373 85373 0 0 0-.937-30.679c-.418-13.736-.852-27.472-1.373-41.205l-.119-3.172a610 610 0 0 0-.918-17.322c-.827-13.204-.591-26.412-.062-39.625l.093-2.698c.04-.832.078-1.664.118-2.52l.095-2.218c.36-2.332 1.168-4.017 2.319-6.064h-2q-.217-7.092-.427-14.185l-.146-4.805c-.307-10.008-.5-19.996-.427-30.01"/><path fill="#c69d4f" d="M977 904h2c-.06.601-.122 1.203-.185 1.822a2326 2326 0 0 0-1.788 18.56l-1.654 17.821L974 957h-2v64l-3 1c-2.01-3.895-2.047-7.081-1.941-11.402-.064-2.814-.491-5.392-.996-8.16-2.424-14.905-2.281-30.201-1.75-45.25l.104-3.253.134-3.017.114-2.663C965 946 965 946 967 943c.279-2.608.465-5.136.563-7.75.225-5.15.654-10.146 1.437-15.25q.225-2.187.438-4.375L970 912l2-1-1 4h2l.875-3.812c.698-3.042 1.33-4.495 3.125-7.188"/><path fill="#f1d074" d="M1126 770h1l.244 1.728c.367 2.571.749 5.14 1.131 7.71l.383 2.72.39 2.588c.116.79.23 1.582.35 2.396L1130 789l2 1 1.438 3.5L1135 797c3.024 1.008 5.269 1.168 8.438 1.313 11.912.854 24.444 2.81 35.37 7.769 2.414 1.011 4.769 1.579 7.317 2.168 7.806 1.988 14.793 6.01 21.875 9.75v2l-2.937.875L1202 822l-1 2-3.727-1.246c-5.877-1.957-11.758-3.9-17.648-5.817-1.06-.35-2.12-.702-3.21-1.064-5.964-1.933-11.789-3.426-17.975-4.436-2.44-.437-2.44-.437-6.14-1.515-3.737-1.044-7.243-1.41-11.112-1.672l-3.958-.297-3.23.047-2 2v-4c18.19-1.937 18.19-1.937 24 0v-2l-2-1-1.75-1.062c-2.846-1.186-5.198-1.077-8.25-.938v2c-1.562 1-1.562 1-4 2-2.332.078-4.668.09-7 0v-2c-3.167 1.833-3.167 1.833-5 5-.09-1.338-.09-1.338-.184-2.703l-.254-3.547c-.08-1.16-.162-2.32-.246-3.516-.206-3.036-.206-3.036-.83-5.125-.56-2.426-.599-4.604-.584-7.093l.01-2.832.025-2.934.014-2.98q.018-3.636.049-7.27"/><path fill="#f9e597" d="M1342 725c11.506 8.754 20.03 21.945 26 35 4.863 12.153 7.262 22.698 6.813 35.813l-.125 3.65c-.42 9.296-1.777 17.696-4.688 26.537l-2-2c-.227-1.88-.227-1.88-.195-4.133l.02-2.441.05-2.551.027-2.574c.024-2.1.06-4.2.098-6.301h-1l.105-1.957c.285-9.893-1.4-19.339-3.105-29.043h-1l-.297-2.16c-.971-6.223-2.319-10.552-5.703-15.84-.703-1.652-1.387-3.313-2-5h-2v-5l-4 1-.367-2.117-.508-2.758-.492-2.742L1347 738l-2-2v-3h-2z"/><path fill="#e7c676" d="M1258 683c5.708.46 10.78 1.371 16.223 3.133 1.97.615 3.96 1.166 5.96 1.672 14.496 3.718 27.513 10.929 39.88 19.258 1.937 1.937 1.937 1.937 2.812 4.5C1323 714 1323 714 1322 717c-10.105-3.29-10.105-3.29-12.812-5.437-2.526-1.804-4.963-2.66-7.895-3.622-2.293-.941-2.293-.941-5.523-2.828-12.094-7.022-26.182-9.875-39.77-12.488l-1.986-.385c-8.32-1.596-16.558-2.73-25.014-3.24v-1q4.188-.04 8.375-.062l2.406-.026c5.992-.025 5.992-.025 8.219 1.088 2.207.07 4.417.084 6.625.063l3.602-.028L1261 689c-.344-2.473-.344-2.473-1-5z"/><path fill="#977c49" d="m1235 1140-1 3c-2.246.887-2.246.887-5.437 1.688-7.294 1.95-14.527 4.056-21.75 6.25l-3.309.98c-6.251 1.902-12.154 4.118-18.054 6.93-15.86 7.458-32.089 9.89-49.45 9.152v-1l11-1-1-6 2.762-.445c17.975-3.112 35.874-7.313 51.238-17.555 2.841.355 5.28 1.093 8 2a141 141 0 0 0 7.5-1.937c6.61-1.793 12.62-2.588 19.5-2.063"/><path fill="#f9e597" d="M1334 738h4l.625 1.75c1.873 3.064 4.345 4.405 7.375 6.25l-2 4h2l.805 2.703 1.07 3.547 1.055 3.516c.943 3.123.943 3.123 2.203 5.46 1.25 2.556.867 4.965.867 7.774l2 2c.259 2.383.259 2.383.266 5.34l.007 3.22-.023 3.378.023 3.365-.007 3.224-.007 2.961C1354 799 1354 799 1352 802c-1.154 3.53-1.984 6.883-2.5 10.563-.608 4.183-1.344 7.86-3.875 11.312L1344 825h-4l.93-2.898c5.757-20.257 4.574-44.531-.305-64.781-1.19-4.417-2.77-8.62-4.574-12.825A35 35 0 0 1 1334 738"/><path fill="#977c49" d="m1075 1156 3.75-.125 2.11-.07c2.14.195 2.14.195 3.921 1.101 17.292 8.524 43.475 4.36 62.219 4.094v5l4 1-11 1v1q-6.637.037-13.275.055-2.247.008-4.494.02c-32.65.187-32.65.187-43.231-4.075-1.355-2.105-1.355-2.105-2-4h-4z"/><path fill="#9d7537" d="M926 1010h2c.23 1.223.461 2.447.7 3.707 4.59 24.501 4.59 24.501 14.3 47.293a469 469 0 0 1 2.813 5.438l1.207 2.308c1.047 2.408 1.556 4.67 1.98 7.254h2a133 133 0 0 1 4.375 6.75c2.575 4.223 5.006 7.826 8.625 11.25a115 115 0 0 1 2.75 3.75c2.764 3.765 5.845 6.977 9.223 10.195C978 1110 978 1110 980.176 1112.81c3.386 4.116 7.645 7.037 11.949 10.129l2.572 1.869c5.965 4.305 11.99 8.411 18.303 12.193l2.883 1.746q3.55 2.142 7.117 4.254l-2 1c-20.758-8.169-40.323-23.323-55-40v-2h-2c-17.704-20.66-29.793-46.265-35.445-72.781-1.099-6.375-1.854-12.79-2.555-19.219"/><path fill="#c8ae6b" d="M1186.998 678.76q5.307-.008 10.613-.041c19.343-.122 38.271-.123 57.389 3.281v1q-3.406.039-6.812.063l-3.833.035C1241 683 1241 683 1238 682a178 178 0 0 0-7.074-.098l-2.072.005c-2.18.005-4.361.018-6.541.03q-2.22.009-4.44.014-5.437.017-10.873.049l-1 2c-5.58 2.636-11.275 2.255-17.305 2.195l-3.27-.008c-3.433-.011-6.867-.037-10.3-.062q-3.5-.016-7-.027-8.562-.034-17.125-.098l2-3c1.945-.293 1.945-.293 4.125-.187L1161 683v-2h-28v-1c17.98-1.261 35.983-1.221 53.998-1.24"/><path fill="#f9e597" d="M1205 681q6.968-.037 13.934-.055 2.37-.008 4.74-.02c2.272-.013 4.543-.018 6.814-.023l2.14-.015c3.075 0 5.431.133 8.372 1.113 3.643.26 7.28.443 10.928.605 5.87.294 5.87.294 8.072 1.395l.438 1.938L1261 688l3 2q-3.937.04-7.875.063l-2.262.025c-5.636.025-5.636.025-7.863-1.088a64 64 0 0 0-4.002-.305l-2.5-.122-2.723-.116-2.843-.126c-10.44-.437-20.879-.557-31.327-.647l-6.165-.063q-7.996-.082-15.993-.153-8.207-.078-16.414-.161-16.016-.16-32.033-.307l-1 5-3-4 1-2 2.655-.025q12.403-.116 24.806-.263 6.375-.076 12.752-.134 6.157-.056 12.313-.136 2.345-.029 4.69-.045c2.196-.017 4.39-.046 6.585-.078l3.782-.04c3.44-.28 6.206-1.045 9.417-2.279z"/><path fill="#f1d074" d="M1144 800a424 424 0 0 1 4.75.375c.882.07 1.763.14 2.672.21 2.569.414 4.336 1.127 6.578 2.415l-2 1v2h-24l-1 212h-1l-.013-2.14q-.156-25.937-.326-51.872-.083-12.544-.158-25.087-.065-10.948-.14-21.897-.04-5.782-.072-11.565c-.09-16.115-.35-32.189-1.189-48.285-.228-4.8-.282-9.603-.305-14.408l-.017-3.03q-.014-3.091-.02-6.182c-.01-3.154-.041-6.308-.072-9.462q-.01-3.037-.016-6.076l-.038-2.828c.014-3.954.13-6.641 1.762-10.293L1131 803h2v2a241 241 0 0 0 4.375-.812l2.46-.458L1142 803z"/><path fill="#c69d4f" d="M1234 1106c.625 1.688.625 1.688 1 4-.937 2.75-.937 2.75-2 5h-2l-.254 2.215c-.902 3.369-2.28 4.848-4.684 7.348-2.575 2.697-4.574 5-6.062 8.437l2 1 2.293 1.574c2.575 1.596 2.575 1.596 5.258 1.57l2.762-.332 3.14-.34q3.896-.52 7.781-1.1l2.175-.31q2.127-.308 4.247-.664c1.973-.289 1.973-.289 5.344-.398l1.378 1.461L1258 1137c2.509.504 2.509.504 5.324.512l3.115.107 3.248.069 3.284.103q4.014.124 8.029.209v1l-2.285.06c-14.66.404-29.175.959-43.715 2.94v-2q-3.877.39-7.75.813l-2.335.252c-5.715.669-11.03 1.905-16.497 3.74L1206 1145c-2.324-1.93-2.324-1.93-4-4l2.344-1.723A875 875 0 0 0 1214 1132l2.227-1.664c7.038-5.648 13.428-14.007 17.062-22.266zM974 1020h1l.288 2.636c3.313 29.765 8.746 56.963 25.712 82.364 2.83 3.513 5.872 6.754 9 10a630 630 0 0 1 5.395 6.309c1.602 1.791 1.602 1.791 3.804 3.289L1021 1126v2l4 2v3c-3.61-2.784-6.78-5.78-10-9a494 494 0 0 0-6.328-5.352C1007 1117 1007 1117 1006 1114a84 84 0 0 0-4.437-3.187c-2.477-1.844-2.477-1.844-4.563-3.813-1.147-2.674-1.477-5.102-2-8a91 91 0 0 0-4-4c-.754-1.64-1.5-3.284-2.156-4.965-.963-2.321-2.11-4.499-3.282-6.723-2.447-4.8-4.108-9.694-5.667-14.843-.746-2.603-.746-2.603-2.895-4.469-.4-2.323-.74-4.657-1-7l-4-1c-.39-1.768-.762-3.54-1.125-5.312l-.633-2.989L970 1045l2-3c.142-2.602.188-5.091.125-7.687l-.027-2.127c-.024-1.73-.06-3.458-.098-5.186h2z"/><path fill="#b09357" d="m1235 1140-1 3c-2.21.887-2.21.887-5.375 1.688l-3.75.996-2.238.593c-5.698 1.562-11.35 3.285-17.012 4.973l-7.21 2.14L1193 1155v-3l-2.562 1.063c-3.888 1.06-6.522.72-10.438-.063 3.79-2.526 7.825-4.435 11.906-6.434 2.828-1.396 5.465-2.813 8.094-4.566 2.841.355 5.28 1.093 8 2a141 141 0 0 0 7.5-1.937c6.61-1.793 12.62-2.588 19.5-2.063"/><path fill="#e7c676" d="M1374 791h2c3.013 16.196.708 34.44-4.687 49.938-4.78 12.869-12.093 24.879-21.313 35.062-2.8 1.863-2.8 1.863-5 3l3-6h2l.828-2.215c1.116-2.651 2.392-4.917 3.922-7.347 3.451-5.636 6.37-11.494 9.25-17.438h2l.113-1.723.2-2.34.175-2.285c.54-2.8 1.605-5.105 2.766-7.695 1.38-3.62 1.84-7.385 2.371-11.207l.378-2.603c1.239-9.019 1.699-18.054 1.997-27.147"/><path fill="#f9e597" d="M1375.875 610.313 1378 611c-.54 6.69-1.887 12.635-4 19l-3-1 .293-6.055L1371 621l-3-2-1 2h-2v2c-5.176 3.125-5.176 3.125-7 4h-3l-.684 1.895L1353 631c-2.348 1.012-2.348 1.012-5.062 1.688q-2.476.633-4.938 1.312l-1 1q-3.5.062-7 0l-1-2 2.238-.629c11.42-3.468 19.846-9.072 28.375-17.355 3.482-2.94 6.616-5.208 11.262-4.703"/><path fill="#a68242" d="M1004 1131h6l1 3c2.289 1.373 4.458 2.153 7 3 3.634-.657 3.634-.657 7-2l1-3c3.681 1.737 7.11 3.856 10.563 6l1.748 1.078A266 266 0 0 1 1046 1144h-2l-1 3h-2v-2l-3 1-1.187 1.688L1035 1149c-4.25-.742-8.334-1.643-12-4l-1.875-1.937c-2.512-2.439-4.98-3.52-8.125-5.063-3.064-1.906-6.102-3.849-9-6z"/><path fill="#ffde89" d="M1320 898c-2.187 2.187-3.697 2.79-6.562 3.875-3.383 1.307-6.705 2.673-10 4.188-11.972 5.31-11.972 5.31-17.813 4.937l-3.625-1c-2.062-2.25-2.062-2.25-3-5 .313-2.812.313-2.812 1-5l1 2 1.688-.691c6.25-2.355 6.25-2.355 9.48-2.215l2.02.343c3.789.817 3.789.817 7.312-.375L1304 898l-2 3 3 1v-2q2.903-.794 5.813-1.562l3.269-.88C1317 897 1317 897 1320 898"/><path fill="#f1d074" d="m1123 688 3 1c.688 2.063.688 2.063 1 4l2-1c.771 2.74 1.124 5.168 1.12 8.012l.004 2.388-.01 2.591v2.75c0 2.998-.009 5.996-.016 8.993l-.005 6.238q-.006 8.208-.024 16.414-.014 8.376-.02 16.75-.016 16.433-.049 32.864h-1c-.797-4.953-1.174-9.79-1.25-14.809l-.044-2.265a2276 2276 0 0 1-.09-4.838 2201 2201 0 0 0-.154-7.701c-.156-7.296-.306-14.591-.436-21.887q-.121-6.714-.276-13.427-.054-2.535-.093-5.07c-.166-10.685-1.156-20.59-3.657-31.003"/><path fill="#f9e597" d="M1365 630h2v6l6-5q-.21 5.657-.437 11.313l-.12 3.248-.127 3.115-.11 2.872C1372 654 1372 654 1371 657h2v2l-3 1v5h-3v-7l-4 1c-1.118-10.351-.542-18.973 2-29"/><path fill="#e2cd8d" d="M1305 709c2.671.965 4.783 1.824 7 3.625l2 1.375h5c1.813 1.5 1.813 1.5 3 3v-7c9.261 4.546 9.261 4.546 13 8 1.401 2.973 1.964 5.72 2 9-.477 2.273-.477 2.273-1 4h-5v-3l-2.633-.176C1325 727 1325 727 1322.07 724.707q-1.488-1.432-2.945-2.894a798 798 0 0 0-3.133-3.004l-1.532-1.466c-2.542-2.339-5.31-4.335-8.132-6.32L1305 710z"/><path fill="#c69d4f" d="m1080 800 1 2c-.156 1.91-.156 1.91-.5 4.063L1080 810l1 1c.04 1.666.043 3.334 0 5l-1.5-1.562L1077 813c-5.863.101-10.467 1.807-15.8 4.16-2.2.84-2.2.84-5.2.84v-2l-3 1v-2l-3 1c-2.187-.937-2.187-.937-4-2 6.172-4.115 14.035-5.768 21.313-6.875 4.685-.828 7.657-2.883 11.289-5.883z"/><path fill="#f9e597" d="m1352 774 2 1c.058 3.937.094 7.875.125 11.813l.05 3.392.02 3.252.032 3C1354 799 1354 799 1352 802c-1.154 3.53-1.984 6.883-2.5 10.563-.608 4.183-1.344 7.86-3.875 11.312L1344 825h-4l.93-2.816c1.417-4.962 1.768-9.996 2.195-15.121l.262-2.94q.315-3.56.613-7.123l4 8c.723-3.966 1.165-7.808 1.316-11.836l.127-3.223.12-3.316.13-3.387q.159-4.119.307-8.238zM1335 719c2.599 1.791 4.923 3.614 7 6 .888 2.814.948 5.008 1 8h2c1.558 2.594 2.977 5.147 4 8-.75 3-.75 3-2 5-2.844-.421-4.33-1.225-6.75-2.875L1338 741v-3l-2.266.273L1333 738c-1.984-1.898-1.984-1.898-3.75-4.375l-1.797-2.46C1326 729 1326 729 1325 727l6 1v3h5c.082-4.161-.018-7.947-1-12"/><path fill="#c69d4f" d="M932 928h1v8h-2l-.148 2.563-.227 3.437c-.07 1.114-.14 2.227-.21 3.375C930 949 930 949 928.972 952.473c-1.545 5.843-1.233 11.882-1.179 17.88.018 2.076.02 4.151.02 6.227.017 6.19.158 12.282.966 18.424.388 3.515.326 7.026.283 10.558l-.014 2.19q-.02 2.625-.049 5.248l-1-3h-2c-1.973-8.714-2.399-17.213-2.375-26.125v-2.105c.045-18.319 2.52-36.36 8.375-53.77"/><path fill="#f1d074" d="M1081 811h1c2.669 10.727 3.42 20.794 3.281 31.818-.031 2.51-.04 5.018-.047 7.528l-.03 4.892-.014 2.22c-.05 3.669-.25 7.25-.683 10.894-.876 8.225-.746 16.518-.823 24.78l-.063 5.54q-.082 7.245-.153 14.49-.077 7.412-.161 14.822-.16 14.508-.307 29.016h-1l.003-2.004q.033-24.23.049-48.46.007-11.717.023-23.435.015-10.224.02-20.446 0-5.405.01-10.808c.009-4.04.009-8.08.009-12.119l.01-3.548c-.01-8.434-.479-16.774-1.124-25.18M1274.977 984.05c2.249 1.056 3.492 1.996 5.023 3.95 1.163 3.486 1.17 6.886 1.246 10.54l.096 3.925.047 2.062c.284 12.24.896 24.337 2.611 36.473h1v27h-2c-1.83-7.63-2.39-15.011-2.598-22.84l-.118-3.645a3521 3521 0 0 1-.347-11.453q-.173-5.721-.356-11.442a2127 2127 0 0 1-.214-7.092c-.208-10.306-.208-10.306-1.367-20.528-1.79-2.53-3.183-3.503-5.77-5.078-2.823-1.167-5.039-1.148-8.09-1.117l-3.378.02-3.512.05-3.559.027q-4.346.036-8.691.098c8.232-5.488 20.97-3.777 29.977-.95"/><path fill="#c8ae6b" d="M1258 683c6.437.51 11.96 1.73 18 4l-2 3h-3v2l3.313.313L1278 693c1.75 1.5 1.75 1.5 3 3l3 1v2l1.813-.625L1288 698l3 2v2c-4.004-.67-7.552-1.904-11.336-3.36-6.985-2.531-14.001-4.188-21.306-5.526-1.992-.366-3.98-.75-5.967-1.137-7.787-1.471-15.479-2.514-23.391-2.977v-1q4.188-.04 8.375-.062l2.406-.026c5.992-.025 5.992-.025 8.219 1.088 2.207.07 4.417.084 6.625.063l3.602-.028L1261 689c-.344-2.473-.344-2.473-1-5z"/><path fill="#ffde89" d="M1229 681q2.156-.04 4.313-.062l2.425-.036C1238 681 1238 681 1241 682c3.643.26 7.28.443 10.928.605 5.87.294 5.87.294 8.072 1.395l.438 1.938L1261 688l3 2q-3.937.04-7.875.063l-2.262.025c-5.636.025-5.636.025-7.863-1.088a91 91 0 0 0-4.79-.316l-2.85-.127-2.985-.12-3.008-.13q-3.683-.16-7.367-.307v-1h6v-2h-3z"/><path fill="#e7c676" d="M1210.75 819.684c3.825 1.549 7.113 3.508 10.563 5.754l1.916 1.197c1.636 1.054 3.209 2.204 4.771 3.365l1 3c-2.312 1.25-2.312 1.25-6 2-7.916-1.76-15.05-5.967-22-10 .332-1.914.332-1.914 1-4 3.27-1.673 5.156-2.21 8.75-1.316"/><path fill="#f1d074" d="M1240 991h1q.074 11.289.11 22.577.015 3.837.04 7.673c.025 3.686.037 7.372.045 11.059l.032 3.438c0 6.411-.575 12.053-2.227 18.253h-1l-1 9h-1l-1-39h2c1.67-10.995 2.517-21.895 3-33"/><path fill="#ffde89" d="M1307 581h3v2h2c.56 4.29 1.095 8.582 1.625 12.875l.484 3.707.43 3.535.413 3.27L1315 609l-2 2v-3h-2v-6l-3 1v-15l-4 1a87 87 0 0 0-2 4 190 190 0 0 1-5.625 6.25l-1.562 1.68q-1.902 2.04-3.813 4.07l-2-1c3.715-4.986 7.468-9.94 11.25-14.875l1.322-1.731c1.725-2.247 3.422-4.388 5.428-6.394"/><path fill="#a68242" d="M1089 1159q4.28.467 8.563.938l2.423.263c3.508.387 6.994.796 10.483 1.33 4.485.596 8.952.822 13.468 1.032l2.65.13q3.207.157 6.413.307v2l-5 1 1 2c-7.247.112-14.454-.004-21.687-.437l-2.106-.12c-4.96-.32-4.96-.32-7.207-1.443l-2.062-.875L1094 1164l-1-3h-4z"/><path fill="#ffde89" d="m1250.867 977.734 3.934-.007 2.03.012c2.032.01 4.063 0 6.095-.012 6.696.013 12.683.213 19.074 2.273v1l-3.241-.016q-5.96-.026-11.92-.039-2.579-.008-5.156-.02c-2.473-.013-4.945-.018-7.417-.023l-2.324-.015c-3.49 0-6.585.175-9.942 1.113-2.178 7.26-2.597 14.453-3 22h-1l-1 20h-1a3743 3743 0 0 1-.11-16.87q-.015-2.87-.04-5.738c-.025-2.75-.036-5.5-.045-8.251l-.032-2.59v-2.425l-.014-2.126c.289-2.4.949-3.963 2.241-6 4.308-1.971 8.171-2.257 12.867-2.266"/><path fill="#c69d4f" d="m990 866 2 1c0 6.662-1.548 11.875-4.312 17.813q-.952 2.102-1.899 4.207l-.929 2.049c-1.748 3.924-3.31 7.925-4.86 11.931h-4l2-12h2a296 296 0 0 0 1.465-7.64l.472-2.61.465-2.64L983 876l2-1a79 79 0 0 0 2.625-4.562l1.352-2.504z"/><path fill="#e7c676" d="M1275 872v3h-2v2h-2v3h3l.148 1.758c.56 5.852 1.357 10.86 4.54 15.93L1280 900l-1 3c-2.382-2.723-4.266-5.372-5.812-8.625-2.913-6.08-6.4-12.587-11.188-17.375v-3h2v-2c4.05-1.35 6.792-.62 11 0"/><path fill="#9d7537" d="M982 1068c1.624 2.436 2.738 4.518 3.883 7.176 6.48 14.85 12.745 28.023 24.117 39.824a630 630 0 0 1 5.395 6.309c1.602 1.791 1.602 1.791 3.804 3.289L1021 1126v2l4 2v3c-3.61-2.784-6.78-5.78-10-9a494 494 0 0 0-6.328-5.352C1007 1117 1007 1117 1006 1114a84 84 0 0 0-4.437-3.187c-2.477-1.844-2.477-1.844-4.563-3.813-1.147-2.674-1.477-5.102-2-8a91 91 0 0 0-4-4c-.752-1.636-1.496-3.277-2.145-4.957-.999-2.387-2.237-4.587-3.48-6.855-2.568-5.02-3.244-9.594-3.375-15.188"/><path fill="#f9e597" d="M1231 574c2.293.09 2.293.09 5 1 1.8 2.941 1.8 2.941 3.313 6.563l1.55 3.628L1242 588l-2.312-.562c-2.778-.666-2.778-.666-5.688.562v39h-1l-.076-2.12q-.178-4.847-.361-9.692l-.12-3.334c-.2-5.22-.462-10.405-.974-15.604-.47-4.83-.588-9.588-.532-14.437l.014-2.307q.02-2.752.049-5.506"/><path fill="#deba61" d="M1187 809c4.96.616 8.937 2.798 13.313 5.063l2.244 1.142q2.725 1.39 5.443 2.795v2l-2.937.875L1202 822l-1 2-21-7c3.114-.826 5.763-1.249 9-1l3 2v-3h-2l1-4z"/><path fill="#e7c676" d="M1276 687c3.813.813 3.813.813 7 2v2l3.25.375c5.537.923 5.537.923 7.75 2.625.75 2.625.75 2.625 1 5-3.982 1.054-6.982.841-11 0v-2l-2.375-.375L1279 696l-2-2c-2.892-.464-2.892-.464-6.125-.625l-3.32-.227L1265 693v-1h6v-2c2.063-1.75 2.063-1.75 5-3"/><path fill="#9d7537" d="M926 1010h2c.23 1.223.461 2.447.7 3.707 4.172 23.096 4.172 23.096 12.94 44.691 1.958 3.746 3.148 7.56 4.36 11.602-1.79-.57-1.79-.57-4-2a58 58 0 0 1-3.375-6.875l-.901-2.142c-6.526-15.966-9.912-31.862-11.724-48.983"/><path fill="#e7c676" d="M1370 836h2c-2.483 14.304-11.535 27.139-20.426 38.29-1.944 2.113-3.961 3.522-6.574 4.71l3-6h2l.828-2.215c1.116-2.651 2.392-4.917 3.922-7.347 3.451-5.636 6.37-11.494 9.25-17.438h2l.313-2.75c.687-3.25.687-3.25 2.124-5.625z"/><path fill="#795e32" d="M975 1112c5.092 1.344 8.583 3.744 12.563 7.063 8.692 7.03 17.593 13.614 27.492 18.874 2.776 1.517 5.345 3.263 7.945 5.063l-2 1c-16.134-6.35-31.467-17.129-44-29z"/><path fill="#b09357" d="M1195 1145c2.05.852 2.05.852 4 2 2.601.029 2.601.029 5.25-.375l2.703-.336L1209 1146v3c-4.478 3.706-10.478 4.636-16 6v-3l-2.562 1.063c-3.888 1.06-6.522.72-10.438-.063 2.915-1.943 5.842-3.612 8.938-5.25l3.152-1.703z"/><path fill="#a68242" d="M965 870c0 3 0 3-.96 4.734l-1.415 2.016-1.652 2.398L959 882c-2.958 4.382-5.88 8.788-8.801 13.196a980 980 0 0 1-3.258 4.863c-3.366 5.103-5.978 10.032-8.097 15.77-1.004 2.584-2.308 4.867-3.844 7.171l-1-2c5.635-18.647 17.206-37.206 31-51M1004 1131h6l1 3c2.289 1.373 4.458 2.153 7 3 3.634-.657 3.634-.657 7-2l1-3c1.875.75 1.875.75 4 2 1.25 2.125 1.25 2.125 2 4l-2.437 1.375L1027 1141l-1 2c-8.27-2.15-15.136-5.905-22-11z"/><path fill="#c69d4f" d="m991 875 1 3c-.542 1.783-.542 1.783-1.477 3.781l-1.027 2.275-1.121 2.444c-5.025 11.39-8.514 23.178-10.375 35.5h-1c-.233-6.283.595-11.88 2-18h-2l-.621 1.898-.817 2.477-.808 2.46C974 913 974 913 973 915h-2c2.186-10.465 2.186-10.465 4-15l2-1v3h3l.58-1.617c.884-2.463 1.777-4.923 2.67-7.383l.91-2.543A126 126 0 0 1 991 875"/><path fill="#b09357" d="m1153 805 3 2c5.65 2.882 10.695 3.632 17 4v2l7 2-3 1c-2.094-.488-2.094-.488-4.5-1.312-4.557-1.464-9.04-2.408-13.762-3.16-2.738-.528-2.738-.528-6.082-1.54-3.875-1.047-7.467-1.467-11.468-1.738l-3.958-.297-3.23.047-2 2v-4c15.293-1.628 15.293-1.628 21-1"/><path fill="#9d7537" d="M1088 1161h5v2l2.875.938C1099 1165 1099 1165 1101 1166c2.913.227 5.81.402 8.727.535l2.614.13q4.142.204 8.284.398 2.805.136 5.61.275 6.882.337 13.765.662v1q-6.637.037-13.275.055-2.247.008-4.494.02c-27.366.157-27.366.157-32.647-2.114L1088 1166z"/><path fill="#c8ae6b" d="m1217 1129 2 1-1.937 1.688c-2.243 2.168-2.243 2.168-2.813 5.062l-.25 2.25 10 1v1a506 506 0 0 1-8.75 2.25l-2.5.68c-2.3.556-4.383 1.017-6.75 1.07-2.578-1.89-2.578-1.89-4-4l2.52-1.863 3.293-2.45 1.658-1.224c2.69-2.006 5.25-3.992 7.529-6.463"/><path fill="#b89768" d="M1132 687h93v1l-3.397.025q-15.825.116-31.651.263-8.137.076-16.274.134-7.848.056-15.697.136-2.998.029-5.996.045c-2.795.017-5.588.046-8.383.078l-2.517.007c-2.03.03-4.06.163-6.085.312l-3 2z"/><path fill="#f1d074" d="M1178 808c1.418.115 2.834.243 4.25.375.789.07 1.578.14 2.39.21 2.446.43 4.208 1.201 6.36 2.415l-1 4h2v3c-5.868-.524-10.549-1.761-16-4v-3l2-1z"/><path fill="#fff5ab" d="M1372 631h1q-.21 5.657-.437 11.313l-.12 3.248-.127 3.115-.11 2.872C1372 654 1372 654 1371 657h2v2c-1.937.563-1.937.563-4 1l-1-1c-.598-9.243-1.001-17.935 3.125-26.445z"/><path fill="#906633" d="M958 1093c4.484 1.41 6.82 3.592 10 7l2.64 2.57 2.61 2.555 2.64 2.57C978 1110 978 1110 979 1113c-3.122-.685-5.482-1.571-7.957-3.621-1.777-1.741-3.492-3.433-5.043-5.379v-2h-2c-1.508-1.969-1.508-1.969-3.125-4.5l-1.633-2.531z"/><path fill="#977c49" d="M1193 1152c-.187 1.875-.187 1.875-1 4-2.562 1.25-2.562 1.25-5 2l-1-3c-.84.315-1.68.63-2.547.953-3.637 1.103-6.916 1.523-10.703 1.797l-3.703.297L1166 1158l-2-2c7.074-1.863 13.635-3.374 20.977-3.008 2.846.011 5.114-.992 8.023-.992"/><path fill="#e7c676" d="m1317 897 3 1c-2.187 2.187-3.697 2.79-6.562 3.875-3.383 1.307-6.705 2.673-10 4.188-11.213 4.974-11.213 4.974-15.782 4.898-1.898-.234-3.78-.586-5.656-.961v-1l1.836-.043c6.055-.345 10.34-1.73 15.644-4.621 4.03-2.136 8.27-3.7 12.52-5.336l2.605-1.176z"/><path fill="#c8ae6b" d="M1260 691c2.625-.125 2.625-.125 5 0v2l2.738-.105 3.574-.082 3.551-.106L1278 693c1.73 1.45 1.73 1.45 3 3l3 1v2l1.813-.625L1288 698l3 2v2c-4.033-.676-7.622-1.92-11.437-3.375-7.096-2.59-14.129-4.235-21.563-5.625z"/><path fill="#ffde89" d="m1260 684 .313 1.875L1261 688l3 2h-16v-3l2-3c3.632-1.178 6.335-.943 10 0"/><path fill="#f9e597" d="M1368 618c2 1 2 1 4 3 .125 3.625.125 3.625 0 7l3-1-1 10h-1l-1-5-5 5-1-2 .938-2.687c1.17-3.65 1.278-6.503 1.062-10.313l-1-3z"/><path fill="#fff5ab" d="M1433 664c-2.452 4.76-5.908 8.578-10 12h-2v-2l-3-1 2-1c2.125.438 2.125.438 4 1l.438-2.312C1425 668 1425 668 1426 665l-6 1c4.526-3.017 7.765-3.346 13-2"/><path fill="#f9e597" d="M1372 637h1l.078 3.55c.297 9.139.941 17.044 4.922 25.45l-3-1-1-5h-2c.344 2.473.344 2.473 1 5l2 1v2h-4c-1.062-1.687-1.062-1.687-2-4 .375-2.75.375-2.75 1-5h3v-2h-2z"/><path fill="#ffde89" d="m1082.516 680.805 3.789.02 3.945.05 3.992.027q4.879.036 9.758.098v1l-2.016.06c-3.037.096-6.073.205-9.109.315l-3.172.094c-5.237.199-9.808.448-14.703 2.531l1 11c-2.304-2.304-3.015-3.905-4-7-.125-3.312-.125-3.312 0-6 3.541-2.196 6.397-2.233 10.516-2.195"/><path fill="#f1d074" d="M1270 880h4l.148 1.758c.56 5.852 1.357 10.86 4.54 15.93L1280 900l-1 3c-4.378-5.133-7.234-10.478-9-17-.125-3.375-.125-3.375 0-6"/><path fill="#fcfcfc" d="M541 1467c4.93 1.48 9.272 3.572 13.813 5.938 5.63 2.882 11.085 5.319 17.187 7.062l-2 2c-20.523-6.186-20.523-6.186-27.25-12.875z"/><path fill="#deba61" d="M1304 584h1c-.077 2.613-.229 4.531-1 7-1.904 2.766-4.188 5.073-6.562 7.438l-1.866 1.927A469 469 0 0 1 1291 605l-2-1q2.034-2.712 4.07-5.422 2.158-2.884 4.297-5.781l1.225-1.651q1.779-2.4 3.553-4.802z"/><path fill="#c69d4f" d="m1249 1137 4 3-18 2v-2h-8v-1c14.837-2.568 14.837-2.568 22-2M980 1113l6 2 3.188.938c2.764 1.044 3.916 1.882 5.812 4.062l2 1v5c-4.518-1.467-7.761-4.012-11.312-7.062l-1.667-1.393A162 162 0 0 1 980 1114z"/><path fill="#f1d074" d="m1208 819 1 2 3 1-1 3 2 1v-2l5 2-1 2h-8v-3l-8-1 1-3c3.063-1.187 3.063-1.187 6-2"/><path fill="#c8ae6b" d="M1187 809c4.389.665 7.981 2.188 12 4l-2 1-1 3h-3l-1 3q-2.159-.427-4.312-.875l-2.426-.492C1183 818 1183 818 1180 816q2.156-.079 4.313-.125l2.425-.07C1189 816 1189 816 1192 818v-3h-2l1-4z"/><path fill="#fcfcfc" d="M392 1389a7325 7325 0 0 1 16.608-.055q2.827-.008 5.654-.02 4.054-.017 8.11-.023l2.569-.015c2.02 0 4.04.05 6.059.113l1 1c.04 1.666.043 3.334 0 5l-1-2c-7.94-2.766-16.834-2.428-25.125-2.625q-2.027-.057-4.055-.117-4.91-.141-9.82-.258z"/><path fill="#f1d074" d="M1159 803c6.055-.195 6.055-.195 8 0l2 2h-3l1 3c2 1.209 2 1.209 4 2-6.406.209-11.93.158-18-2l3-2c2.688.375 2.688.375 5 1z"/><path fill="#e2cd8d" d="m1314 716 7 2v2l2.188.125c2.812.875 2.812.875 4.257 2.277 1.232 1.496 2.398 3.044 3.555 4.598-1.648.766-1.648.766-4 1-2.727-1.766-2.727-1.766-5.625-4.25l-2.914-2.453C1316 719 1316 719 1314 716"/><path fill="#c69d4f" d="M963 1093c3 1 3 1 4.688 2.438L969 1097v2l3 1v3l3 1v2h2v2h2l1 5a1093 1093 0 0 1-3.3-3.312 264 264 0 0 0-3.93-3.813c-4.176-4.032-7.67-7.415-9.77-12.875M932 928h1v8h-2l-.148 2.563c-.421 6.384-1.046 12.295-2.852 18.437h-2c.493-10.02 3.325-19.385 6-29"/><path fill="#a68242" d="M926 1010h2q.97 4.812 1.938 9.625l.552 2.738c.91 4.536 1.789 9.066 2.51 13.637-2.216-2.216-3.2-4.304-4.27-7.227-1.61-6.118-2.082-12.492-2.73-18.773"/><path fill="#977c49" d="M1153 809c6.798-.316 13.31.873 20 2v2l7 2-3 1c-2.094-.488-2.094-.488-4.5-1.312-4.683-1.513-9.292-2.426-14.152-3.16C1156 811 1156 811 1153 809"/><path fill="#fcfcfc" d="m1969.102 1300.902 3.671.01 3.852.025 3.875.014q4.75.018 9.5.049v1l-1.817.06c-2.749.096-5.497.205-8.245.315l-2.858.094c-5.332.223-10.066.64-15.08 2.531l-1 2v-5c2.766-1.383 5.01-1.112 8.102-1.098"/><path fill="#c8ae6b" d="M1144 799c5.063-.156 9.504.372 14.438 1.5l3.746.844L1165 802v1l-5 1 1 3-3 1v-2h-2v-2l-2-1-1.75-1c-2.72-1.208-5.313-1.6-8.25-2zM1258 683q2.157.174 4.313.375l2.425.21C1267 684 1267 684 1270 686h-5l6 1c-1.625 1.563-1.625 1.563-4 3-3.25-.312-3.25-.312-6-1l-.375-2.437L1260 684zM1202 823l7 2v3l6-1 1 3-2 2-13-7z"/><path fill="#f1d074" d="M1197 814h2c2 2 2 2 3 5-2.75 1.125-2.75 1.125-6 2-2.375-.875-2.375-.875-4-2l1-2 3-1z"/><path fill="#c69d4f" d="m1080 800 1 2c-.168 2.696-.612 5.324-1 8-4.75-1.875-4.75-1.875-7-3v-2a150 150 0 0 1 6-4z"/><path fill="#c8ae6b" d="M1262 875c2.36.2 2.36.2 5 1 1.328 2.145 1.328 2.145 2.25 4.813l.953 2.644A90 90 0 0 1 1272 890c-4.572-4.064-8.066-9.197-10-15"/><path fill="#282828" d="M2133 1449c2.563 5.125 2.068 8.96 1.875 14.59.122 3.327.683 5.442 2.125 8.41l-4-1z"/><path fill="#ffde89" d="M1332 833c.582 1.836.582 1.836 1 4-1.4 2.798-2.788 4.788-5 7h-3c1.78-4.044 4.395-7.46 7-11"/><path fill="#deba61" d="M1091 1021h22l-1 3-21-2z"/><path fill="#f9e597" d="m1342 725 3 2q.524 2.495 1 5l1.625 2.063L1349 736c-.312 2.25-.312 2.25-1 4-1.5-1.812-1.5-1.812-3-4v-3h-2z"/><path fill="#c8ae6b" d="m1277 695 7 2v2l1.813-.625L1288 698l3 2v2c-3.662-.627-6.882-1.645-10.312-3.062l-2.676-1.098L1276 697z"/><path fill="#f9e597" d="m1371 619 4 1c.088 2.332.08 4.668 0 7l-2 3-2-1z"/><path fill="#dcdbda" d="M513 1438c3.015 2.906 5.656 5.964 8.25 9.25l2.14 2.703L525 1452l-1 2a876 876 0 0 1-3.812-4.187l-2.145-2.356c-1.987-2.39-3.583-4.716-5.043-7.457z"/><path fill="#c69d4f" d="m1074 807 4 2v2h3v5l-1.687-1.312c-2.361-1.723-4.79-3.216-7.313-4.688zM965 870c0 3 0 3-1.207 5.156l-1.606 2.344-1.582 2.344A38 38 0 0 1 956 885c.383-2.997.919-4.877 2.594-7.422l1.906-2.328 1.906-2.36c.835-.99 1.679-1.975 2.594-2.89"/><path fill="#838383" d="M2157 1455h1l.184 2.484.253 3.266.247 3.234c.259 2.468.492 4.68 1.316 7.016l2 1h-5z"/><path fill="#e7c676" d="m1272 890 3 1c1.422 1.96 1.422 1.96 2.75 4.375l1.36 2.398.89 2.227-1 3c-2.956-3.465-5.148-6.833-7-11z"/><path fill="#c0b17f" d="M1372 637h1l1 21-3-1z"/><path fill="#f9e597" d="m1374 613 4 1-2 11h-1c-.982-4.053-1.082-7.839-1-12"/><path fill="#e7c676" d="M1304 584h1c-.187 3.25-.187 3.25-1 7-2.562 2.438-2.562 2.438-5 4 1.07-4.278 1.975-7.712 5-11"/><path fill="#a68242" d="M982 1068c1.827 2.74 2.988 4.89 4 8 .125 3.313.125 3.313 0 6-1.924-2.208-2.936-3.677-3.512-6.578l-.176-2.672-.199-2.703z"/><path fill="#ffde89" d="M1131 803h2v2h10v1h-11v5c-1.062-1.75-1.062-1.75-2-4 .375-2.25.375-2.25 1-4"/><path fill="#f1d074" d="m1275 891 3 1v2h2c.625 1.875.625 1.875 1 4l-2 2a125 125 0 0 1-4-6zM1318 850l1 2c-2.187 2.438-2.187 2.438-5 5-2.812.813-2.812.813-5 1 2.853-2.932 5.65-5.643 9-8"/><path fill="#c8ae6b" d="M1167 803c3.735.498 5.812.875 9 3l-2.75.438c-2.465.426-4.838.913-7.25 1.562z"/><path fill="#977c49" d="m1131 790 4 8-2 2-3-2z"/><path fill="#e7c676" d="m1352 868 1 2c-1.125 2.938-1.125 2.938-3 6-2.687 1.875-2.687 1.875-5 3l3-6h2z"/><path fill="#c69d4f" d="m993 867 3 1c-1.074 2.915-1.778 4.778-4 7v-5l-2-1z"/><path fill="#f1d074" d="M1178 813a98 98 0 0 1 7 0l3 2h-2v2l-8-2z"/><path fill="#382f19" d="M1153 809c4.824-.193 8.496.243 13 2v1c-4.824.193-8.496-.243-13-2z"/><path fill="#fcfcfc" d="M541 1467c3.912 1.156 6.875 2.355 10 5l-1 2q-2.254-1.463-4.5-2.937l-2.531-1.653L541 1468z"/><path fill="#151615" d="m2133 1403 5 2-1.375 1.313c-1.825 1.795-1.825 1.795-3.625 4.687z"/><path fill="#c4c4c5" d="M421 1390h11v5l-1-2c-2.35-.69-2.35-.69-5.062-1.125l-2.786-.508L421 1391z"/><path fill="#c8ae6b" d="M1227 1139h12v3h-4v-2h-8z"/><path fill="#deba61" d="M1254 1134c2.375 1.938 2.375 1.938 4 4h-6v-2l-4-1c2.75-.75 2.75-.75 6-1"/><path fill="#fcfcfc" d="M2132 1423h1v9l-3 1z"/><path fill="#dcdbda" d="M1493 1405v6h-3l-1-5c2-1 2-1 4-1"/><path fill="#aeaeae" d="m2170 1374-1 3c-2.937 1.75-2.937 1.75-6 3l-2-1 1-2h4v-2c2-1 2-1 4-1"/><path fill="#fcfcfc" d="m1106 1315 3 1c3 5.222 3 5.222 3 8h-2l-2-6h-2z"/><path fill="#dcdbda" d="M969 1299h6l-1 2a134 134 0 0 1-6 3z"/><path fill="#977c49" d="M1132 687h12v1l-1.863.148-2.45.227-2.425.21c-2.534.31-2.534.31-5.262 2.415z"/><path fill="#fcfcfc" d="M434 1471c2.125.938 2.125.938 4 2-2.375 1.563-2.375 1.563-5 3l-2-1 1-3z"/><path fill="#aeaeae" d="M2164 1315h6c-1.187 1.438-1.187 1.438-3 3-2.687.688-2.687.688-5 1l2-1zM1961 1302h8c-2.332 1.206-4.496 2.165-7 3l-1 2z"/><path fill="#a68242" d="m997 1126 6 1 1 4c-2.375-.812-2.375-.812-5-2z"/><path fill="#c69d4f" d="m979 855 1 2c-2.312 2.5-2.312 2.5-5 5h-3z"/><path fill="#f1d074" d="M1159 803h8l-3 2v2h-3z"/><path fill="#977c49" d="m1023 1144 9 1-1 3c-5.75-1.75-5.75-1.75-8-4"/><path fill="#e7c676" d="m1202 823 7 2-1 2c-2.375-.375-2.375-.375-5-1l-2-2z"/><path fill="#b09357" d="M1260 691c2.625-.125 2.625-.125 5 0v2l2 1-9-1z"/><path fill="#f1d074" d="M1307 581h3l-2 4h-2l-1 2c.3-1.673.636-3.34 1-5zM1324 844l1 4-6 2z"/><path fill="#c8ae6b" d="M1199 814c5.75 1.75 5.75 1.75 8 4-2.312.125-2.312.125-5 0l-3-2zM1046 814l-1 3h-7c2.633-2.633 4.305-3 8-3M1286 698l5 2v2l-5-1z"/><path fill="#c69d4f" d="m1300 589 1 3c-.937 2.188-.937 2.188-2 4h-3a56.5 56.5 0 0 1 4-7"/><path fill="#626262" d="M1692 1325h2l2 4-4 2z"/><path fill="#c69d4f" d="M956 1084h2v2l3 1-1 4z"/><path fill="#fcfcfc" d="m315 1468 7 2v2c-1.812-.312-1.812-.312-4-1-1.75-1.562-1.75-1.562-3-3"/><path fill="#a68242" d="M1020 1128c1.875.313 1.875.313 4 1l2 3h-3c-1.687-2-1.687-2-3-4"/><path fill="#aeaeae" d="m967 1438 4 5-4 1z"/><path fill="#dcdbda" d="M2177 1303h2l-2 6-2-4z"/><path fill="#151615" d="m2171 1415 1 4-5-2z"/><path fill="#382f19" d="M1078 811h3v5l-4-4z"/><path fill="#906633" d="M954 1087h3l-1 4z"/><path fill="#c8ae6b" d="m1217 833 6 1-3 2z"/><path fill="#cec689" d="m1371 654 3 1-1 3-2-1z"/><path fill="#fcfcfc" d="m642 1478 2 2-1 2h-2z"/><path fill="#363636" d="M1491 1405h2l-2 4z"/><path fill="#dcdbda" d="m2135 1363 4 2-3 1z"/><path fill="#c69d4f" d="m939 915 3 1-4 2z"/><path fill="#c8ae6b" d="m1202 823 3 1v2l-4-2z"/><path fill="#c4c4c5" d="M2133 1298h2v3l-3-1z"/><path fill="#c8ae6b" d="m1262 875 3 1-2 2z"/><path fill="#dcdbda" d="m519 1446 2 2h-3z"/></svg>